STARTFONT 2.3
FONT -FontForge-Zen Tokyo Zoo-Book-R-Normal--20-200-72-72-P-93-ISO10646-1
SIZE 20 72 72  4
FONTBOUNDINGBOX 26 26 -2 -5
COMMENT "Generated by fontforge, http://fontforge.sourceforge.net"
COMMENT "Copyright 2021 The Zen Tokyo Zoo Project Authors (https://github.com/googlefonts/zen-tokyo-zoo)"
STARTPROPERTIES 40
FOUNDRY "FontForge"
FAMILY_NAME "Zen Tokyo Zoo"
WEIGHT_NAME "Book"
SLANT "R"
SETWIDTH_NAME "Normal"
ADD_STYLE_NAME ""
PIXEL_SIZE 20
POINT_SIZE 200
RESOLUTION_X 72
RESOLUTION_Y 72
SPACING "P"
AVERAGE_WIDTH 93
CHARSET_REGISTRY "ISO10646"
CHARSET_ENCODING "1"
FONTNAME_REGISTRY ""
CHARSET_COLLECTIONS "ISO10646-1"
BITS_PER_PIXEL 4
FONT_NAME "ZenTokyoZoo-Regular"
FACE_NAME "Zen Tokyo Zoo Regular"
COPYRIGHT "Copyright 2021 The Zen Tokyo Zoo Project Authors (https://github.com/googlefonts/zen-tokyo-zoo)"
FONT_VERSION "1.002; ttfautohint (v1.8.3)"
FONT_ASCENT 16
FONT_DESCENT 4
UNDERLINE_POSITION -3
UNDERLINE_THICKNESS 1
X_HEIGHT 7
CAP_HEIGHT 15
RAW_ASCENT 800
RAW_DESCENT 200
NORM_SPACE 6
RELATIVE_WEIGHT 40
RELATIVE_SETWIDTH 50
SUPERSCRIPT_X 0
SUPERSCRIPT_Y 7
SUPERSCRIPT_SIZE 12
SUBSCRIPT_X 0
SUBSCRIPT_Y 1
SUBSCRIPT_SIZE 12
AVG_LOWERCASE_WIDTH 82
AVG_UPPERCASE_WIDTH 151
ENDPROPERTIES
CHARS 338
STARTCHAR CR
ENCODING 13
SWIDTH 600 0
DWIDTH 12 0
BBX 1 1 0 0
BITMAP
00
ENDCHAR
STARTCHAR space
ENCODING 32
SWIDTH 280 0
DWIDTH 6 0
BBX 1 1 0 0
BITMAP
00
ENDCHAR
STARTCHAR exclam
ENCODING 33
SWIDTH 196 0
DWIDTH 4 0
BBX 2 8 1 0
BITMAP
99
99
99
99
99
66
56
99
ENDCHAR
STARTCHAR quotedbl
ENCODING 34
SWIDTH 302 0
DWIDTH 6 0
BBX 6 3 0 5
BITMAP
846648
846648
423324
ENDCHAR
STARTCHAR numbersign
ENCODING 35
SWIDTH 513 0
DWIDTH 10 0
BBX 9 8 1 0
BITMAP
0099074200
3579688820
3559788820
0325124000
8888649500
8888748600
0330954000
0990972000
ENDCHAR
STARTCHAR dollar
ENCODING 36
SWIDTH 379 0
DWIDTH 8 0
BBX 7 10 0 -1
BITMAP
00041000
01583400
1A382770
55963450
28687200
04974750
00047690
357835A0
08683A40
00182000
ENDCHAR
STARTCHAR percent
ENCODING 37
SWIDTH 493 0
DWIDTH 10 0
BBX 10 8 0 0
BITMAP
1999109550
6494765900
5696888100
0798964000
0006598960
0027995973
0096394864
075702A980
ENDCHAR
STARTCHAR ampersand
ENCODING 38
SWIDTH 487 0
DWIDTH 10 0
BBX 9 8 1 0
BITMAP
0199950000
074A790000
0955981000
046A180000
4594917810
A53A573800
A593974000
4A98579200
ENDCHAR
STARTCHAR quotesingle
ENCODING 39
SWIDTH 146 0
DWIDTH 3 0
BBX 3 3 0 5
BITMAP
8460
8460
4230
ENDCHAR
STARTCHAR parenleft
ENCODING 40
SWIDTH 210 0
DWIDTH 4 0
BBX 4 9 0 -1
BITMAP
0658
0981
2790
5490
6480
5490
2790
0981
0658
ENDCHAR
STARTCHAR parenright
ENCODING 41
SWIDTH 210 0
DWIDTH 4 0
BBX 4 9 0 -1
BITMAP
5690
0981
0855
0648
0549
0648
0855
0981
5690
ENDCHAR
STARTCHAR asterisk
ENCODING 42
SWIDTH 358 0
DWIDTH 7 0
BBX 5 5 1 3
BITMAP
027400
552460
630170
274650
150510
ENDCHAR
STARTCHAR plus
ENCODING 43
SWIDTH 394 0
DWIDTH 8 0
BBX 8 6 0 1
BITMAP
00066000
00099000
29399391
29399391
00099000
00099000
ENDCHAR
STARTCHAR comma
ENCODING 44
SWIDTH 216 0
DWIDTH 4 0
BBX 4 3 0 -1
BITMAP
0423
0963
1890
ENDCHAR
STARTCHAR hyphen
ENCODING 45
SWIDTH 326 0
DWIDTH 7 0
BBX 5 2 1 3
BITMAP
999940
999940
ENDCHAR
STARTCHAR period
ENCODING 46
SWIDTH 176 0
DWIDTH 4 0
BBX 3 2 0 0
BITMAP
2450
3690
ENDCHAR
STARTCHAR slash
ENCODING 47
SWIDTH 298 0
DWIDTH 6 0
BBX 6 8 0 0
BITMAP
000A73
0037A0
008480
00A730
036A00
084700
0A7200
46A000
ENDCHAR
STARTCHAR zero
ENCODING 48
SWIDTH 306 0
DWIDTH 6 0
BBX 6 8 0 0
BITMAP
079980
368955
648648
648648
648648
648648
378955
079980
ENDCHAR
STARTCHAR one
ENCODING 49
SWIDTH 306 0
DWIDTH 6 0
BBX 5 8 1 0
BITMAP
949720
949720
009720
009720
009720
009720
009720
009720
ENDCHAR
STARTCHAR two
ENCODING 50
SWIDTH 299 0
DWIDTH 6 0
BBX 6 8 0 0
BITMAP
06AA70
278873
113A54
009390
084920
143200
4AAAA3
4AAAA3
ENDCHAR
STARTCHAR three
ENCODING 51
SWIDTH 324 0
DWIDTH 6 0
BBX 6 8 0 0
BITMAP
069891
367A39
103238
000771
000748
325459
286939
059891
ENDCHAR
STARTCHAR four
ENCODING 52
SWIDTH 339 0
DWIDTH 7 0
BBX 7 8 0 0
BITMAP
00379100
00938000
03791000
0A380000
02119630
49939630
49939630
00009630
ENDCHAR
STARTCHAR five
ENCODING 53
SWIDTH 363 0
DWIDTH 7 0
BBX 6 8 1 0
BITMAP
499991
499991
423000
747720
7472A0
211963
749791
199950
ENDCHAR
STARTCHAR six
ENCODING 54
SWIDTH 306 0
DWIDTH 6 0
BBX 6 8 0 0
BITMAP
079980
378955
648111
648850
648473
648847
378965
079980
ENDCHAR
STARTCHAR seven
ENCODING 55
SWIDTH 298 0
DWIDTH 6 0
BBX 6 8 0 0
BITMAP
299993
299993
000110
001890
005490
009550
009810
036900
ENDCHAR
STARTCHAR eight
ENCODING 56
SWIDTH 306 0
DWIDTH 6 0
BBX 6 8 0 0
BITMAP
079980
378955
649547
2A4943
1494A1
644947
468955
079980
ENDCHAR
STARTCHAR nine
ENCODING 57
SWIDTH 306 0
DWIDTH 6 0
BBX 6 8 0 0
BITMAP
069980
378955
54A648
294648
049648
112648
468955
079980
ENDCHAR
STARTCHAR colon
ENCODING 58
SWIDTH 176 0
DWIDTH 4 0
BBX 3 5 0 0
BITMAP
2450
3690
0000
2450
3690
ENDCHAR
STARTCHAR semicolon
ENCODING 59
SWIDTH 217 0
DWIDTH 4 0
BBX 4 6 0 -1
BITMAP
0325
0648
0000
0423
0963
1890
ENDCHAR
STARTCHAR less
ENCODING 60
SWIDTH 450 0
DWIDTH 9 0
BBX 8 10 1 -1
BITMAP
00000001
000004A1
00029652
00294A60
35926100
69388100
01884A50
0003A652
000005A1
00000001
ENDCHAR
STARTCHAR equal
ENCODING 61
SWIDTH 344 0
DWIDTH 7 0
BBX 7 5 0 1
BITMAP
29999910
29999910
00000000
29999910
29999910
ENDCHAR
STARTCHAR greater
ENCODING 62
SWIDTH 450 0
DWIDTH 9 0
BBX 8 9 0 0
BITMAP
11000000
19700000
274A5000
03A56A30
0006A488
00281861
1884A200
24881000
29200000
ENDCHAR
STARTCHAR question
ENCODING 63
SWIDTH 346 0
DWIDTH 7 0
BBX 5 8 1 0
BITMAP
399920
A5A490
232890
01A390
065A10
084600
021200
084600
ENDCHAR
STARTCHAR at
ENCODING 64
SWIDTH 490 0
DWIDTH 10 0
BBX 10 8 0 0
BITMAP
005DEEC400
06C2004B60
2A43885781
583A167482
56587C7491
2686769740
0646775000
0057778100
ENDCHAR
STARTCHAR A
ENCODING 65
SWIDTH 798 0
DWIDTH 16 0
BBX 16 16 0 0
BITMAP
0000009947000000
0000055A85400000
00000955A1900000
0000189467910000
0000649919450000
0000964985590000
00027A5455982000
0008489019847000
000974800946A000
0036A73004697300
00947A4994A74800
0098478998848900
0559820000279540
0955A399993A6490
1894600000064991
6499100000018946
ENDCHAR
STARTCHAR B
ENCODING 66
SWIDTH 784 0
DWIDTH 16 0
BBX 14 16 1 0
BITMAP
99549999998100
99549999995920
99540000007690
99549999981A72
99540000019945
99540000018A54
99549999999582
99549999994291
99540000004A48
9954999999623B
99540000005499
99540000003699
99540000008589
99549999997A56
99549999997580
99549999999500
ENDCHAR
STARTCHAR C
ENCODING 67
SWIDTH 776 0
DWIDTH 16 0
BBX 15 16 0 0
BITMAP
0000059999995000
0003A56999965940
0049698999869630
0296796000178200
0948920000001000
0995600000000000
4598100000000000
5499000000000000
5499000000000000
4598100000000000
1995600000000000
0948920000001000
0296796000179200
0049598999869730
0003A56999965940
0000059999995000
ENDCHAR
STARTCHAR D
ENCODING 68
SWIDTH 806 0
DWIDTH 16 0
BBX 15 16 1 0
BITMAP
9954999996000000
9954999965A40000
9954000039685000
9954999950578300
995400004A275A00
9954000001A19820
9954000000379450
9954000000097470
9954000000097470
9954000000099450
995400000037A820
9954000001A85A00
995400004A788300
9954999989685000
9954999965A40000
9954999996000000
ENDCHAR
STARTCHAR E
ENCODING 69
SWIDTH 677 0
DWIDTH 14 0
BBX 12 16 1 0
BITMAP
995499999998
995499999998
995400000000
995499999998
995400000000
995400000000
995499999970
995400000000
995499999970
995499999970
995400000000
995400000000
995400000000
995499999998
995499999998
995499999998
ENDCHAR
STARTCHAR F
ENCODING 70
SWIDTH 677 0
DWIDTH 14 0
BBX 12 16 1 0
BITMAP
995499999998
995499999998
995400000000
995499999998
995400000000
995400000000
995499999970
995400000000
995499999970
995499999970
995400000000
995400000000
995400000000
995400000000
995400000000
995400000000
ENDCHAR
STARTCHAR G
ENCODING 71
SWIDTH 872 0
DWIDTH 17 0
BBX 17 16 0 0
BITMAP
000005999999500000
0003A56999965A3000
004969899987969400
029679600017976700
094892000000483000
099560000000010000
459810000000000000
549900000999999970
549900000999999970
459810000000000000
199560000999999970
094892000000256250
029679600016967920
004959899987958500
0003A56999965A3000
000005999999500000
ENDCHAR
STARTCHAR H
ENCODING 72
SWIDTH 781 0
DWIDTH 16 0
BBX 14 16 1 0
BITMAP
99540000009449
99540000009449
99540000009449
99540000009449
99540000009449
99540000009449
99549999969449
99540000009449
99549999969449
99549999969449
99540000009449
99540000009449
99540000009449
99540000009449
99540000009449
99540000009449
ENDCHAR
STARTCHAR I
ENCODING 73
SWIDTH 262 0
DWIDTH 5 0
BBX 4 16 1 0
BITMAP
9954
9954
9954
9954
9954
9954
9954
9954
9954
9954
9954
9954
9954
9954
9954
9954
ENDCHAR
STARTCHAR J
ENCODING 74
SWIDTH 674 0
DWIDTH 13 0
BBX 13 16 0 0
BITMAP
00000000097470
00000000097470
00000000097470
00000000097470
00000000097470
00000000097470
00000000097470
00000000097470
00000000097470
00000000097470
84690000097470
648A0000199550
28968000958900
084A79997A5700
00956999668000
00059999940000
ENDCHAR
STARTCHAR K
ENCODING 75
SWIDTH 739 0
DWIDTH 15 0
BBX 14 16 1 0
BITMAP
995400002A65A1
99540000A49740
995400075A4800
9954003884A000
995401A5792000
9954033A650000
99542944900000
995485A3100000
99595A49000000
995494A5700000
99541A48840000
995402966A2000
9954005794A000
995400084A4800
99540000A49660
995400001A5793
ENDCHAR
STARTCHAR L
ENCODING 76
SWIDTH 604 0
DWIDTH 12 0
BBX 11 16 1 0
BITMAP
995400000000
995400000000
995400000000
995400000000
995400000000
995400000000
995400000000
995400000000
995400000000
995400000000
995400000000
995400000000
995400000000
995499999970
995499999970
995499999970
ENDCHAR
STARTCHAR M
ENCODING 77
SWIDTH 909 0
DWIDTH 18 0
BBX 17 16 1 0
BITMAP
995400000000189630
995430000003489630
9954A000000A189630
995448000083389630
995497400478389630
995465A11A56289630
995479494396489630
995484A66748189630
99540A579291189630
995402984A00189630
99540065A200189630
995400094000189630
995400012000189630
995400000000189630
995400000000189630
995400000000189630
ENDCHAR
STARTCHAR N
ENCODING 78
SWIDTH 796 0
DWIDTH 16 0
BBX 14 16 1 0
BITMAP
99540000005499
99545000005499
99549200005499
99544A00005499
9954A570005499
99544883005499
9954974A005499
995465A4805499
99540A49745499
995401A66A5499
99540057935499
995400084A5499
99540001A45499
99540000385499
99540000065499
99540000005499
ENDCHAR
STARTCHAR O
ENCODING 79
SWIDTH 894 0
DWIDTH 18 0
BBX 18 16 0 0
BITMAP
000005999999400000
0003A5699996692000
004969899988A59200
029679600016985A10
09489200000038A470
099560000000084790
459810000000037972
549900000000009953
549900000000009953
459810000000037972
199560000000084790
09489200000038A470
029679600016885A10
004959899987959200
0003A5699996692000
000005999999400000
ENDCHAR
STARTCHAR P
ENCODING 80
SWIDTH 743 0
DWIDTH 15 0
BBX 14 16 1 0
BITMAP
99549999998100
99549999995920
99540000007690
99549999981A72
99540000019945
99540000018A54
99549999999582
99549999994290
99540000004A10
99549999996000
99540000000000
99540000000000
99540000000000
99540000000000
99540000000000
99540000000000
ENDCHAR
STARTCHAR Q
ENCODING 81
SWIDTH 911 0
DWIDTH 18 0
BBX 18 16 0 0
BITMAP
000005999999400000
0003A5699996691000
004969899988A5A200
029679600017895A00
09489200000048A560
0995600000000957A0
459810000000036981
549900000000018963
549900000000019964
459810000000835972
1995600000074937A0
094892000065859370
029679600017675930
004959899982677683
0003A5699886568661
000005999999404700
ENDCHAR
STARTCHAR R
ENCODING 82
SWIDTH 745 0
DWIDTH 15 0
BBX 14 16 1 0
BITMAP
99549999998100
99549999995920
99540000007690
99549999981A72
99540000019945
99540000018A54
99549999999582
99549999994290
99540000004A10
99549999996000
99540006526000
99540008479100
99540002894700
99540000947910
99540000289470
99540000094791
ENDCHAR
STARTCHAR S
ENCODING 83
SWIDTH 660 0
DWIDTH 13 0
BBX 13 16 0 0
BITMAP
00059999971000
0196799984A300
095A7999795A10
2896600057A430
45991000030000
36A3A510000000
0A3A3499610000
03927973497000
00288326954900
00001699449640
00000000687380
00030000095490
34A75000489560
1A597999895A10
0394799974A200
00179999971000
ENDCHAR
STARTCHAR T
ENCODING 84
SWIDTH 641 0
DWIDTH 13 0
BBX 13 16 0 0
BITMAP
79999999999950
79999999999950
00000000000000
79999999999950
00002455000000
00003698100000
00003698100000
00003698100000
00003698100000
00003698100000
00003698100000
00003698100000
00003698100000
00003698100000
00003698100000
00003698100000
ENDCHAR
STARTCHAR U
ENCODING 85
SWIDTH 702 0
DWIDTH 14 0
BBX 13 16 1 0
BITMAP
99540000369810
99540000369810
99540000369810
99540000369810
99540000369810
99540000369810
99540000369810
99540000369810
99540000369810
99540000369810
99540000369900
97570000658900
74993003A84800
1A598998869100
03A48998493000
00179999810000
ENDCHAR
STARTCHAR V
ENCODING 86
SWIDTH 758 0
DWIDTH 15 0
BBX 15 16 0 0
BITMAP
64991000000A7490
189550000037A640
0A55900000848900
0649910000A74900
01894600037A6400
0095590008489000
0064991009748000
0018946037A64000
0009559084890000
0006498197480000
000199465A640000
0000955A28900000
0000649844800000
0000199466400000
00000955A6000000
0000055982000000
ENDCHAR
STARTCHAR W
ENCODING 87
SWIDTH 972 0
DWIDTH 19 0
BBX 19 16 0 0
BITMAP
74790000945900064890
36972000984700095590
09945002796300098460
09549006489200369720
07489009559710748900
03697209847450955900
00994627974490984600
009549648928A3697200
00748955591984489000
00369728467955559000
0009946973A559846000
00095593907489372000
00074890903697290000
00036973600984670000
00009946100955910000
00009559000648900000
ENDCHAR
STARTCHAR X
ENCODING 88
SWIDTH 712 0
DWIDTH 14 0
BBX 14 16 0 0
BITMAP
1A65A000084973
055A5600289490
00A47910947910
003794846A4700
0009498455A000
0001984A564000
000074A6580000
00000A55A00000
0000256A470000
0000A194892000
00055928939000
001A6468497300
00849731A74A00
0289490065A560
094791000A56A1
56A47000037948
ENDCHAR
STARTCHAR Y
ENCODING 89
SWIDTH 769 0
DWIDTH 15 0
BBX 15 16 0 0
BITMAP
74A56000002974A0
0A47920000949830
03884A00066A4800
0074A5602A65A100
000A479294974000
0003884A1A480000
000084A663A10000
00000A46A3400000
0000032523000000
0000007734000000
0000009945000000
0000009945000000
0000009945000000
0000009945000000
0000009945000000
0000009945000000
ENDCHAR
STARTCHAR Z
ENCODING 90
SWIDTH 708 0
DWIDTH 14 0
BBX 14 16 0 0
BITMAP
03999999948849
039999993A4791
0000000065A560
03999996974A00
00000009498300
00000047948000
000000A56A1000
0000074A640000
00002884900000
0000A479100000
00065A56000000
001974A0000000
00949830000000
04794849999940
0A56A399999940
74A65999999940
ENDCHAR
STARTCHAR bracketleft
ENCODING 91
SWIDTH 320 0
DWIDTH 6 0
BBX 5 9 1 -1
BITMAP
774940
994940
990000
990000
990000
990000
990000
994940
774940
ENDCHAR
STARTCHAR backslash
ENCODING 92
SWIDTH 298 0
DWIDTH 6 0
BBX 6 8 0 0
BITMAP
46A000
0A7200
084700
036A00
00A730
008480
0037A0
000A73
ENDCHAR
STARTCHAR bracketright
ENCODING 93
SWIDTH 320 0
DWIDTH 6 0
BBX 5 9 1 -1
BITMAP
986350
988460
008460
008460
008460
008460
008460
988460
986350
ENDCHAR
STARTCHAR asciicircum
ENCODING 94
SWIDTH 309 0
DWIDTH 6 0
BBX 4 4 1 4
BITMAP
0020
0740
2864
945A
ENDCHAR
STARTCHAR underscore
ENCODING 95
SWIDTH 472 0
DWIDTH 9 0
BBX 8 2 1 0
BITMAP
99999994
99999994
ENDCHAR
STARTCHAR grave
ENCODING 96
SWIDTH 195 0
DWIDTH 4 0
BBX 2 2 1 9
BITMAP
91
29
ENDCHAR
STARTCHAR a
ENCODING 97
SWIDTH 414 0
DWIDTH 8 0
BBX 8 8 0 0
BITMAP
0018A500
00649900
00A6A810
027A9470
084846A0
0A7A9B72
46B99B48
94600279
ENDCHAR
STARTCHAR b
ENCODING 98
SWIDTH 423 0
DWIDTH 8 0
BBX 8 8 0 0
BITMAP
36B99980
36B99947
36900559
36B99AA7
36B99959
36900289
36B99949
36B99991
ENDCHAR
STARTCHAR c
ENCODING 99
SWIDTH 446 0
DWIDTH 9 0
BBX 9 8 0 0
BITMAP
0049999400
0677995710
1984005100
5490000000
5490000000
1984005100
0677995710
0049999400
ENDCHAR
STARTCHAR d
ENCODING 100
SWIDTH 450 0
DWIDTH 9 0
BBX 9 8 0 0
BITMAP
36B9995000
36B9976700
3690038820
3690009450
3690009450
3690038820
36B9976700
36B9995000
ENDCHAR
STARTCHAR e
ENCODING 101
SWIDTH 363 0
DWIDTH 7 0
BBX 7 8 0 0
BITMAP
36B99980
36B99980
36900000
36B99920
36B99920
36900000
36B99980
36B99980
ENDCHAR
STARTCHAR f
ENCODING 102
SWIDTH 365 0
DWIDTH 7 0
BBX 7 8 0 0
BITMAP
36B99980
36B99980
36900000
36B99920
36B99920
36900000
36900000
36900000
ENDCHAR
STARTCHAR g
ENCODING 103
SWIDTH 483 0
DWIDTH 10 0
BBX 10 8 0 0
BITMAP
0049999400
0677996830
1984004200
5490069991
5490069BB1
1984008490
0677995920
0049999200
ENDCHAR
STARTCHAR h
ENCODING 104
SWIDTH 428 0
DWIDTH 9 0
BBX 8 8 0 0
BITMAP
36900279
36900279
36900279
36B99A79
36B99A79
36900279
36900279
36900279
ENDCHAR
STARTCHAR i
ENCODING 105
SWIDTH 176 0
DWIDTH 4 0
BBX 3 8 0 0
BITMAP
3690
3690
3690
3690
3690
3690
3690
3690
ENDCHAR
STARTCHAR j
ENCODING 106
SWIDTH 390 0
DWIDTH 8 0
BBX 7 8 0 0
BITMAP
00000990
00000990
00000990
00000990
00000990
55902890
1A599580
03A99800
ENDCHAR
STARTCHAR k
ENCODING 107
SWIDTH 381 0
DWIDTH 8 0
BBX 8 8 0 0
BITMAP
369055A0
3691A640
36974900
369B8200
36B4B000
36B96600
36947830
369075A2
ENDCHAR
STARTCHAR l
ENCODING 108
SWIDTH 330 0
DWIDTH 7 0
BBX 7 8 0 0
BITMAP
36900000
36900000
36900000
36900000
36900000
36900000
36B99930
36B99930
ENDCHAR
STARTCHAR m
ENCODING 109
SWIDTH 501 0
DWIDTH 10 0
BBX 10 8 0 0
BITMAP
36C2002D63
36AA11AA63
36C4994C63
36AA59AA63
3693973963
3690530963
3690000963
3690000963
ENDCHAR
STARTCHAR n
ENCODING 110
SWIDTH 444 0
DWIDTH 9 0
BBX 9 8 0 0
BITMAP
36C2009810
36AA009810
36B4809810
36B9849810
36965AA810
369094B810
36901A9810
369003B810
ENDCHAR
STARTCHAR o
ENCODING 111
SWIDTH 494 0
DWIDTH 10 0
BBX 10 8 0 0
BITMAP
0049999300
0677996850
1984005790
5490000963
5490000963
1984005790
0677996850
0049999300
ENDCHAR
STARTCHAR p
ENCODING 112
SWIDTH 412 0
DWIDTH 8 0
BBX 8 8 0 0
BITMAP
36B99990
36B99947
36900549
36B99965
36B99960
36900000
36900000
36900000
ENDCHAR
STARTCHAR q
ENCODING 113
SWIDTH 494 0
DWIDTH 10 0
BBX 10 8 0 0
BITMAP
0049999300
0677996850
1984005790
5490000963
5490005A63
1984054BA0
067799A4A1
0049999920
ENDCHAR
STARTCHAR r
ENCODING 114
SWIDTH 412 0
DWIDTH 8 0
BBX 8 8 0 0
BITMAP
36B99990
36B99947
36900549
36B99965
36B9BB70
36909470
369037A0
36900A64
ENDCHAR
STARTCHAR s
ENCODING 115
SWIDTH 379 0
DWIDTH 8 0
BBX 7 8 0 0
BITMAP
04A99810
29699490
54B10210
19478600
01787390
11302890
38799590
05999910
ENDCHAR
STARTCHAR t
ENCODING 116
SWIDTH 349 0
DWIDTH 7 0
BBX 7 8 0 0
BITMAP
79999970
79AAA970
00747000
00747000
00747000
00747000
00747000
00747000
ENDCHAR
STARTCHAR u
ENCODING 117
SWIDTH 400 0
DWIDTH 8 0
BBX 8 8 0 0
BITMAP
36900963
36900963
36900963
36900963
36900963
28900982
0A4994A0
01999910
ENDCHAR
STARTCHAR v
ENCODING 118
SWIDTH 394 0
DWIDTH 8 0
BBX 8 8 0 0
BITMAP
94600848
45A00A73
098136A0
09468470
046A9720
00986A00
00949700
0046D200
ENDCHAR
STARTCHAR w
ENCODING 119
SWIDTH 521 0
DWIDTH 10 0
BBX 11 8 0 0
BITMAP
955095509810
648099637900
27946A974800
0989499A5400
094D6B7A9100
054A99479000
0189945B7000
0097619A3000
ENDCHAR
STARTCHAR x
ENCODING 120
SWIDTH 369 0
DWIDTH 7 0
BBX 7 8 0 0
BITMAP
56A074A0
0A489830
038A5800
0094D100
00A97300
065C4A00
1A65A650
84A056A0
ENDCHAR
STARTCHAR y
ENCODING 121
SWIDTH 422 0
DWIDTH 8 0
BBX 9 8 0 0
BITMAP
75A1075A10
0A48298300
0297B48000
0065AA0000
0005320000
0009630000
0009630000
0009630000
ENDCHAR
STARTCHAR z
ENCODING 122
SWIDTH 409 0
DWIDTH 8 0
BBX 8 8 0 0
BITMAP
29999993
2999AAA4
0001A4A0
000A4A10
0094A100
085A2000
2BAA9993
29999993
ENDCHAR
STARTCHAR braceleft
ENCODING 123
SWIDTH 443 0
DWIDTH 9 0
BBX 7 9 1 -1
BITMAP
00735980
00846980
00846000
98846000
98846000
00846000
00846000
00846980
00735980
ENDCHAR
STARTCHAR bar
ENCODING 124
SWIDTH 196 0
DWIDTH 4 0
BBX 2 9 1 -1
BITMAP
99
99
99
99
99
99
99
99
99
ENDCHAR
STARTCHAR braceright
ENCODING 125
SWIDTH 506 0
DWIDTH 10 0
BBX 8 9 2 -1
BITMAP
79447000
79559000
00459000
00459791
00459791
00459000
00459000
79559000
79447000
ENDCHAR
STARTCHAR asciitilde
ENCODING 126
SWIDTH 450 0
DWIDTH 9 0
BBX 9 3 0 2
BITMAP
1888500320
2999511620
2300599810
ENDCHAR
STARTCHAR uni00A0
ENCODING 160
SWIDTH 280 0
DWIDTH 6 0
BBX 1 1 0 0
BITMAP
00
ENDCHAR
STARTCHAR exclamdown
ENCODING 161
SWIDTH 196 0
DWIDTH 4 0
BBX 2 8 1 -2
BITMAP
56
99
66
99
99
99
99
99
ENDCHAR
STARTCHAR cent
ENCODING 162
SWIDTH 305 0
DWIDTH 6 0
BBX 6 10 0 -2
BITMAP
009540
03BAA2
3A9985
984030
990000
984030
3A9975
039991
009540
002110
ENDCHAR
STARTCHAR sterling
ENCODING 163
SWIDTH 408 0
DWIDTH 8 0
BBX 8 8 0 0
BITMAP
199AA300
83985A00
11002100
9AAAA700
9AAAA700
06420000
9AAAAAA6
9AAAAAA6
ENDCHAR
STARTCHAR currency
ENCODING 164
SWIDTH 401 0
DWIDTH 8 0
BBX 8 6 0 1
BITMAP
03700740
28499382
00A66A00
00A66A00
27399372
14700741
ENDCHAR
STARTCHAR yen
ENCODING 165
SWIDTH 423 0
DWIDTH 8 0
BBX 9 8 0 0
BITMAP
75A1065A10
0A48297400
0297B48000
0065AA1000
0005320000
0859649300
0859649300
0009630000
ENDCHAR
STARTCHAR brokenbar
ENCODING 166
SWIDTH 196 0
DWIDTH 4 0
BBX 2 9 1 0
BITMAP
55
99
99
99
00
55
99
99
99
ENDCHAR
STARTCHAR section
ENCODING 167
SWIDTH 322 0
DWIDTH 6 0
BBX 6 8 0 0
BITMAP
08FFE5
37A510
171493
468749
557789
096147
004979
19FFF2
ENDCHAR
STARTCHAR dieresis
ENCODING 168
SWIDTH 287 0
DWIDTH 6 0
BBX 4 2 1 9
BITMAP
C378
1001
ENDCHAR
STARTCHAR copyright
ENCODING 169
SWIDTH 493 0
DWIDTH 10 0
BBX 10 9 0 0
BITMAP
0028997100
03A2002A20
0A000001A0
4604993082
640A002063
460A002082
0A049931A0
03A2003A20
0028997100
ENDCHAR
STARTCHAR ordfeminine
ENCODING 170
SWIDTH 331 0
DWIDTH 7 0
BBX 5 4 1 4
BITMAP
089700
39B800
78A820
8A7870
ENDCHAR
STARTCHAR guillemotleft
ENCODING 171
SWIDTH 298 0
DWIDTH 6 0
BBX 6 5 0 2
BITMAP
001010
0763A0
036352
282840
037190
ENDCHAR
STARTCHAR logicalnot
ENCODING 172
SWIDTH 420 0
DWIDTH 8 0
BBX 8 4 0 1
BITMAP
29999995
29999995
00000325
00000648
ENDCHAR
STARTCHAR uni00AD
ENCODING 173
SWIDTH 326 0
DWIDTH 7 0
BBX 5 2 1 3
BITMAP
999940
999940
ENDCHAR
STARTCHAR registered
ENCODING 174
SWIDTH 493 0
DWIDTH 10 0
BBX 10 9 0 0
BITMAP
0028997100
03A2002A20
0A000001A0
4609697082
64096B5063
4609073082
0A090371A0
03A2003A20
0028997100
ENDCHAR
STARTCHAR macron
ENCODING 175
SWIDTH 331 0
DWIDTH 7 0
BBX 5 1 1 9
BITMAP
999960
ENDCHAR
STARTCHAR degree
ENCODING 176
SWIDTH 298 0
DWIDTH 6 0
BBX 4 4 1 4
BITMAP
3993
9669
9669
3993
ENDCHAR
STARTCHAR plusminus
ENCODING 177
SWIDTH 418 0
DWIDTH 8 0
BBX 8 8 0 0
BITMAP
00097200
00097200
08497393
08497393
00097200
00032100
29999995
29999995
ENDCHAR
STARTCHAR uni00B2
ENCODING 178
SWIDTH 233 0
DWIDTH 5 0
BBX 3 4 1 4
BITMAP
8D40
0870
6830
BB60
ENDCHAR
STARTCHAR uni00B3
ENCODING 179
SWIDTH 228 0
DWIDTH 5 0
BBX 3 4 1 4
BITMAP
8B50
0530
0560
7B30
ENDCHAR
STARTCHAR acute
ENCODING 180
SWIDTH 195 0
DWIDTH 4 0
BBX 2 2 1 9
BITMAP
29
91
ENDCHAR
STARTCHAR uni00B5
ENCODING 181
SWIDTH 506 0
DWIDTH 10 0
BBX 9 10 1 -2
BITMAP
9900846000
9900846000
9900846000
9900846000
9900846000
9900A55000
99695A4900
9969A39950
9900000000
9900000000
ENDCHAR
STARTCHAR paragraph
ENCODING 182
SWIDTH 435 0
DWIDTH 9 0
BBX 8 8 0 0
BITMAP
08999996
56999996
74702202
38959819
05959819
00009819
00009819
00009819
ENDCHAR
STARTCHAR periodcentered
ENCODING 183
SWIDTH 176 0
DWIDTH 4 0
BBX 3 2 0 3
BITMAP
2450
3690
ENDCHAR
STARTCHAR cedilla
ENCODING 184
SWIDTH 261 0
DWIDTH 5 0
BBX 4 4 1 -4
BITMAP
0600
7B90
1073
7980
ENDCHAR
STARTCHAR uni00B9
ENCODING 185
SWIDTH 218 0
DWIDTH 4 0
BBX 3 4 1 4
BITMAP
B750
0750
0750
0750
ENDCHAR
STARTCHAR ordmasculine
ENCODING 186
SWIDTH 335 0
DWIDTH 7 0
BBX 5 4 1 4
BITMAP
4EFB10
960780
957480
498910
ENDCHAR
STARTCHAR guillemotright
ENCODING 187
SWIDTH 298 0
DWIDTH 6 0
BBX 6 5 0 2
BITMAP
110100
1A3770
243630
048292
180730
ENDCHAR
STARTCHAR onequarter
ENCODING 188
SWIDTH 429 0
DWIDTH 9 0
BBX 8 8 0 0
BITMAP
25900383
25900770
02904820
02907600
00058293
00185670
0067066A
0284055A
ENDCHAR
STARTCHAR onehalf
ENCODING 189
SWIDTH 437 0
DWIDTH 9 0
BBX 9 8 0 0
BITMAP
4890058100
0290185000
0290670000
0272846600
0007766810
0048217700
0076046600
0460036600
ENDCHAR
STARTCHAR threequarters
ENCODING 190
SWIDTH 409 0
DWIDTH 8 0
BBX 8 8 0 0
BITMAP
25500550
01711850
34927700
17738300
00077680
00582850
01862676
06702676
ENDCHAR
STARTCHAR questiondown
ENCODING 191
SWIDTH 346 0
DWIDTH 7 0
BBX 5 8 1 -1
BITMAP
074600
021200
085600
2A5500
92A100
992110
98A790
189820
ENDCHAR
STARTCHAR Agrave
ENCODING 192
SWIDTH 798 0
DWIDTH 16 0
BBX 16 21 0 0
BITMAP
0000389200000000
0000084900000000
000001A640000000
00000055A0000000
0000000000000000
0000009947000000
0000055A85400000
00000955A1900000
0000189467910000
0000649919450000
0000964985590000
00027A5455982000
0008489019847000
000974800946A000
0036A73004697300
00947A4994A74800
0098478998848900
0559820000279540
0955A399993A6490
1894600000064991
6499100000018946
ENDCHAR
STARTCHAR Aacute
ENCODING 193
SWIDTH 798 0
DWIDTH 16 0
BBX 16 21 0 0
BITMAP
000000000A470000
0000000055A00000
00000001A7400000
0000000849000000
0000000000000000
0000009947000000
0000055A85400000
00000955A1900000
0000189467910000
0000649919450000
0000964985590000
00027A5455982000
0008489019847000
000974800946A000
0036A73004697300
00947A4994A74800
0098478998848900
0559820000279540
0955A399993A6490
1894600000064991
6499100000018946
ENDCHAR
STARTCHAR Acircumflex
ENCODING 194
SWIDTH 798 0
DWIDTH 16 0
BBX 16 21 0 0
BITMAP
000001A482000000
0000094A19200000
0000669284A00000
000297500A480000
0000000000000000
0000009947000000
0000055A85400000
00000955A1900000
0000189467910000
0000649919450000
0000964985590000
00027A5455982000
0008489019847000
000974800946A000
0036A73004697300
00947A4994A74800
0098478998848900
0559820000279540
0955A399993A6490
1894600000064991
6499100000018946
ENDCHAR
STARTCHAR Atilde
ENCODING 195
SWIDTH 798 0
DWIDTH 16 0
BBX 16 20 0 0
BITMAP
0000189500060000
0000830770380000
0000600059810000
0000000000000000
0000009947000000
0000055A85400000
00000955A1900000
0000189467910000
0000649919450000
0000964985590000
00027A5455982000
0008489019847000
000974800946A000
0036A73004697300
00947A4994A74800
0098478998848900
0559820000279540
0955A399993A6490
1894600000064991
6499100000018946
ENDCHAR
STARTCHAR Adieresis
ENCODING 196
SWIDTH 798 0
DWIDTH 16 0
BBX 16 21 0 0
BITMAP
0001896006981000
0008208228028000
0008208228028000
0001896006981000
0000000000000000
0000009947000000
0000055A85400000
00000955A1900000
0000189467910000
0000649919450000
0000964985590000
00027A5455982000
0008489019847000
000974800946A000
0036A73004697300
00947A4994A74800
0098478998848900
0559820000279540
0955A399993A6490
1894600000064991
6499100000018946
ENDCHAR
STARTCHAR Aring
ENCODING 197
SWIDTH 798 0
DWIDTH 16 0
BBX 16 21 0 0
BITMAP
0000004AA4000000
000000A00A000000
000000A00A000000
0000004994000000
0000000000000000
0000009947000000
0000055A85400000
00000955A1900000
0000189467910000
0000649919450000
0000964985590000
00027A5455982000
0008489019847000
000974800946A000
0036A73004697300
00947A4994A74800
0098478998848900
0559820000279540
0955A399993A6490
1894600000064991
6499100000018946
ENDCHAR
STARTCHAR AE
ENCODING 198
SWIDTH 1078 0
DWIDTH 22 0
BBX 21 16 0 0
BITMAP
0000000054993999999980
0000000346983999999980
0000000927972000000000
0000003709955999999980
0000009149846000000000
0000046839648000000000
00000A2979559599999700
0000468758469000000000
0000A28A06489499999700
0004696504599399999700
000A38A002798200000000
0056965793896300000000
00A47A4993994500000000
055A650000974779999980
0A56A19995964969999980
55A6500000845959999980
ENDCHAR
STARTCHAR Ccedilla
ENCODING 199
SWIDTH 776 0
DWIDTH 16 0
BBX 15 21 0 -5
BITMAP
0000059999995000
0003A56999965940
0049698999869630
0296796000178200
0948920000001000
0995600000000000
4598100000000000
5499000000000000
5499000000000000
4598100000000000
1995600000000000
0948920000001000
0296796000179200
0049598999869730
0003A56999965940
0000059999995000
0000000620000000
0000004C96000000
0000004108200000
0000003008200000
0000007995000000
ENDCHAR
STARTCHAR Egrave
ENCODING 200
SWIDTH 677 0
DWIDTH 14 0
BBX 12 21 1 0
BITMAP
000047910000
000009480000
000002983000
00000074A000
000000000000
995499999998
995499999998
995400000000
995499999998
995400000000
995400000000
995499999970
995400000000
995499999970
995499999970
995400000000
995400000000
995400000000
995499999998
995499999998
995499999998
ENDCHAR
STARTCHAR Eacute
ENCODING 201
SWIDTH 677 0
DWIDTH 14 0
BBX 12 21 1 0
BITMAP
000000849000
000002882000
00000A470000
000056A00000
000000000000
995499999998
995499999998
995400000000
995499999998
995400000000
995400000000
995499999970
995400000000
995499999970
995499999970
995400000000
995400000000
995400000000
995499999998
995499999998
995499999998
ENDCHAR
STARTCHAR Ecircumflex
ENCODING 202
SWIDTH 677 0
DWIDTH 14 0
BBX 12 21 1 0
BITMAP
000029651000
0000A482A000
00084A0A4800
005692029650
000000000000
995499999998
995499999998
995400000000
995499999998
995400000000
995400000000
995499999970
995400000000
995499999970
995499999970
995400000000
995400000000
995400000000
995499999998
995499999998
995499999998
ENDCHAR
STARTCHAR Edieresis
ENCODING 203
SWIDTH 677 0
DWIDTH 14 0
BBX 12 21 1 0
BITMAP
002994008970
00910A055055
00910A055055
002994008970
000000000000
995499999998
995499999998
995400000000
995499999998
995400000000
995400000000
995499999970
995400000000
995499999970
995499999970
995400000000
995400000000
995400000000
995499999998
995499999998
995499999998
ENDCHAR
STARTCHAR Igrave
ENCODING 204
SWIDTH 262 0
DWIDTH 5 0
BBX 6 21 -1 0
BITMAP
A47000
389200
084900
01A640
000000
009954
009954
009954
009954
009954
009954
009954
009954
009954
009954
009954
009954
009954
009954
009954
009954
ENDCHAR
STARTCHAR Iacute
ENCODING 205
SWIDTH 262 0
DWIDTH 5 0
BBX 5 21 1 0
BITMAP
0055A0
01A640
084900
389200
000000
995400
995400
995400
995400
995400
995400
995400
995400
995400
995400
995400
995400
995400
995400
995400
995400
ENDCHAR
STARTCHAR Icircumflex
ENCODING 206
SWIDTH 262 0
DWIDTH 5 0
BBX 9 21 -2 0
BITMAP
0048841000
01A5639000
0A491A5600
75A1038830
0000000000
0009954000
0009954000
0009954000
0009954000
0009954000
0009954000
0009954000
0009954000
0009954000
0009954000
0009954000
0009954000
0009954000
0009954000
0009954000
0009954000
ENDCHAR
STARTCHAR Idieresis
ENCODING 207
SWIDTH 262 0
DWIDTH 5 0
BBX 10 21 -2 0
BITMAP
3992018960
A01A072072
A01A072072
3992018960
0000000000
0009954000
0009954000
0009954000
0009954000
0009954000
0009954000
0009954000
0009954000
0009954000
0009954000
0009954000
0009954000
0009954000
0009954000
0009954000
0009954000
ENDCHAR
STARTCHAR Eth
ENCODING 208
SWIDTH 856 0
DWIDTH 17 0
BBX 17 16 0 0
BITMAP
009954999996000000
009954999965A40000
009954000039675000
009954999950588300
00995400004A275A00
005532000000A1A820
799999992000379450
000000000000097470
799999992000097470
799999992000099450
00553200000037A820
009954000001A85A00
00995400004A788300
009954999989675000
009954999965A40000
009954999996000000
ENDCHAR
STARTCHAR Ntilde
ENCODING 209
SWIDTH 796 0
DWIDTH 16 0
BBX 14 20 1 0
BITMAP
00019940006000
00092076037000
00060006981000
00000000000000
99540000005499
99545000005499
99549200005499
99544A00005499
9954A570005499
99544883005499
9954974A005499
995465A4805499
99540A49745499
995401A66A5499
99540057935499
995400084A5499
99540001A45499
99540000385499
99540000065499
99540000005499
ENDCHAR
STARTCHAR Ograve
ENCODING 210
SWIDTH 894 0
DWIDTH 18 0
BBX 18 21 0 0
BITMAP
000003791000000000
000000949000000000
000000197400000000
000000065A00000000
000000000000000000
000005999999400000
0003A5699996692000
004969899988A59200
029679600016985A10
09489200000038A470
099560000000084790
459810000000037972
549900000000009953
549900000000009953
459810000000037972
199560000000084790
09489200000038A470
029679600016885A10
004959899987959200
0003A5699996692000
000005999999400000
ENDCHAR
STARTCHAR Oacute
ENCODING 211
SWIDTH 894 0
DWIDTH 18 0
BBX 18 21 0 0
BITMAP
00000000056A100000
000000001A65000000
0000000084A0000000
000000028820000000
000000000000000000
000005999999400000
0003A5699996692000
004969899988A59200
029679600016985A10
09489200000038A470
099560000000084790
459810000000037972
549900000000009953
549900000000009953
459810000000037972
199560000000084790
09489200000038A470
029679600016885A10
004959899987959200
0003A5699996692000
000005999999400000
ENDCHAR
STARTCHAR Ocircumflex
ENCODING 212
SWIDTH 894 0
DWIDTH 18 0
BBX 18 21 0 0
BITMAP
0000001A4720000000
00000094A1A1000000
0000065A184A000000
0000388401A4700000
000000000000000000
000005999999400000
0003A5699996692000
004969899988A59200
029679600016985A10
09489200000038A470
099560000000084790
459810000000037972
549900000000009953
549900000000009953
459810000000037972
199560000000084790
09489200000038A470
029679600016885A10
004959899987959200
0003A5699996692000
000005999999400000
ENDCHAR
STARTCHAR Otilde
ENCODING 213
SWIDTH 894 0
DWIDTH 18 0
BBX 18 20 0 0
BITMAP
000001994000600000
000009207603700000
000006000698100000
000000000000000000
000005999999400000
0003A5699996692000
004969899988A59200
029679600016985A10
09489200000038A470
099560000000084790
459810000000037972
549900000000009953
549900000000009953
459810000000037972
199560000000084790
09489200000038A470
029679600016885A10
004959899987959200
0003A5699996692000
000005999999400000
ENDCHAR
STARTCHAR Odieresis
ENCODING 214
SWIDTH 894 0
DWIDTH 18 0
BBX 18 21 0 0
BITMAP
000019950069810000
000081091370370000
000082091370370000
000019950069810000
000000000000000000
000005999999400000
0003A5699996692000
004969899988A59200
029679600016985A10
09489200000038A470
099560000000084790
459810000000037972
549900000000009953
549900000000009953
459810000000037972
199560000000084790
09489200000038A470
029679600016885A10
004959899987959200
0003A5699996692000
000005999999400000
ENDCHAR
STARTCHAR multiply
ENCODING 215
SWIDTH 370 0
DWIDTH 7 0
BBX 7 6 0 1
BITMAP
01602300
1853A430
043A4900
02A49200
08493650
00805600
ENDCHAR
STARTCHAR Oslash
ENCODING 216
SWIDTH 894 0
DWIDTH 18 0
BBX 18 17 0 -1
BITMAP
000005999998192000
0002A669998265A510
003959899852984A00
01A68960000A57A520
084992000084A75490
0995600004795838A0
369810001A66A27972
549900829499219954
648A04756A56009963
45991A297400027982
189192A48000085790
0A37575A000038A460
045938930016985A00
00A1A5768988959200
02384A399996692000
0027A4899999400000
000140000000000000
ENDCHAR
STARTCHAR Ugrave
ENCODING 217
SWIDTH 702 0
DWIDTH 14 0
BBX 13 21 1 0
BITMAP
0065A000000000
000A4700000000
00038910000000
00008490000000
00000000000000
99540000369810
99540000369810
99540000369810
99540000369810
99540000369810
99540000369810
99540000369810
99540000369810
99540000369810
99540000369810
99540000369900
97570000658900
74993003A84800
1A598998869100
03A48998493000
00179999810000
ENDCHAR
STARTCHAR Uacute
ENCODING 218
SWIDTH 702 0
DWIDTH 14 0
BBX 13 21 1 0
BITMAP
0000000A650000
00000074A00000
00000288200000
00000948000000
00000000000000
99540000369810
99540000369810
99540000369810
99540000369810
99540000369810
99540000369810
99540000369810
99540000369810
99540000369810
99540000369810
99540000369900
97570000658900
74993003A84800
1A598998869100
03A48998493000
00179999810000
ENDCHAR
STARTCHAR Ucircumflex
ENCODING 219
SWIDTH 702 0
DWIDTH 14 0
BBX 13 21 1 0
BITMAP
0000A482000000
00094A19200000
00569284A00000
0297500A480000
00000000000000
99540000369810
99540000369810
99540000369810
99540000369810
99540000369810
99540000369810
99540000369810
99540000369810
99540000369810
99540000369810
99540000369900
97570000658900
74993003A84800
1A598998869100
03A48998493000
00179999810000
ENDCHAR
STARTCHAR Udieresis
ENCODING 220
SWIDTH 702 0
DWIDTH 14 0
BBX 13 21 1 0
BITMAP
01896005981000
08208228028000
08208228028000
01896005981000
00000000000000
99540000369810
99540000369810
99540000369810
99540000369810
99540000369810
99540000369810
99540000369810
99540000369810
99540000369810
99540000369810
99540000369900
97570000658900
74993003A84800
1A598998869100
03A48998493000
00179999810000
ENDCHAR
STARTCHAR Yacute
ENCODING 221
SWIDTH 769 0
DWIDTH 15 0
BBX 15 21 0 0
BITMAP
0000000065A00000
0000000197400000
0000000849000000
0000003791000000
0000000000000000
74A56000002974A0
0A47920000949830
03884A00066A4800
0074A5602A65A100
000A479294974000
0003884A1A480000
000084A663A10000
00000A46A3400000
0000032523000000
0000007734000000
0000009945000000
0000009945000000
0000009945000000
0000009945000000
0000009945000000
0000009945000000
ENDCHAR
STARTCHAR Thorn
ENCODING 222
SWIDTH 743 0
DWIDTH 15 0
BBX 14 16 1 0
BITMAP
99540000000000
99540000000000
99540000000000
99549999996000
99549999998A10
99540000007790
99549999981A82
99540000018954
99540000019A44
99549999999672
99549999994190
99540000004A10
99549999996000
99540000000000
99540000000000
99540000000000
ENDCHAR
STARTCHAR germandbls
ENCODING 223
SWIDTH 424 0
DWIDTH 8 0
BBX 8 8 0 0
BITMAP
04999970
19699873
36900846
36909BA5
36909958
36900289
36939949
36939992
ENDCHAR
STARTCHAR agrave
ENCODING 224
SWIDTH 414 0
DWIDTH 8 0
BBX 8 11 0 0
BITMAP
001A0000
00055000
00000000
0018A500
00649900
00A6A810
027A9470
084846A0
0A7A9B72
46B99B48
94600279
ENDCHAR
STARTCHAR aacute
ENCODING 225
SWIDTH 414 0
DWIDTH 8 0
BBX 8 11 0 0
BITMAP
00001A00
00008200
00000000
0018A500
00649900
00A6A810
027A9470
084846A0
0A7A9B72
46B99B48
94600279
ENDCHAR
STARTCHAR acircumflex
ENCODING 226
SWIDTH 414 0
DWIDTH 8 0
BBX 8 11 0 0
BITMAP
000A3000
00843900
00000000
0018A500
00649900
00A6A810
027A9470
084846A0
0A7A9B72
46B99B48
94600279
ENDCHAR
STARTCHAR atilde
ENCODING 227
SWIDTH 414 0
DWIDTH 8 0
BBX 8 11 0 0
BITMAP
00793250
00607910
00000000
0018A500
00649900
00A6A810
027A9470
084846A0
0A7A9B72
46B99B48
94600279
ENDCHAR
STARTCHAR adieresis
ENCODING 228
SWIDTH 414 0
DWIDTH 8 0
BBX 8 11 0 0
BITMAP
00782D00
00110100
00000000
0018A500
00649900
00A6A810
027A9470
084846A0
0A7A9B72
46B99B48
94600279
ENDCHAR
STARTCHAR aring
ENCODING 229
SWIDTH 414 0
DWIDTH 8 0
BBX 8 12 0 0
BITMAP
00068100
00084400
00068100
00000000
0018A500
00649900
00A6A810
027A9470
084846A0
0A7A9B72
46B99B48
94600279
ENDCHAR
STARTCHAR ae
ENCODING 230
SWIDTH 593 0
DWIDTH 12 0
BBX 12 8 0 0
BITMAP
0000A4E99994
000469A99994
000A5A900000
0065AA899970
00A65A6A9970
074A09450000
197A9C4B9994
8490064C9994
ENDCHAR
STARTCHAR ccedilla
ENCODING 231
SWIDTH 446 0
DWIDTH 9 0
BBX 9 12 0 -4
BITMAP
0049999400
0677995710
1984005100
5490000000
5490000000
1984005100
0677995710
0049999400
0000600000
0005B91000
0001064000
0006980000
ENDCHAR
STARTCHAR egrave
ENCODING 232
SWIDTH 363 0
DWIDTH 7 0
BBX 7 11 0 0
BITMAP
00290000
00074000
00000000
36B99980
36B99980
36900000
36B99920
36B99920
36900000
36B99980
36B99980
ENDCHAR
STARTCHAR eacute
ENCODING 233
SWIDTH 363 0
DWIDTH 7 0
BBX 7 11 0 0
BITMAP
00002900
00009100
00000000
36B99980
36B99980
36900000
36B99920
36B99920
36900000
36B99980
36B99980
ENDCHAR
STARTCHAR ecircumflex
ENCODING 234
SWIDTH 363 0
DWIDTH 7 0
BBX 7 11 0 0
BITMAP
000A3000
00833800
00000000
36B99980
36B99980
36900000
36B99920
36B99920
36900000
36B99980
36B99980
ENDCHAR
STARTCHAR edieresis
ENCODING 235
SWIDTH 363 0
DWIDTH 7 0
BBX 7 11 0 0
BITMAP
00873C00
00110100
00000000
36B99980
36B99980
36900000
36B99920
36B99920
36900000
36B99980
36B99980
ENDCHAR
STARTCHAR igrave
ENCODING 236
SWIDTH 176 0
DWIDTH 4 0
BBX 3 11 0 0
BITMAP
7300
0A00
0000
3690
3690
3690
3690
3690
3690
3690
3690
ENDCHAR
STARTCHAR iacute
ENCODING 237
SWIDTH 176 0
DWIDTH 4 0
BBX 4 11 0 0
BITMAP
0073
0290
0000
3690
3690
3690
3690
3690
3690
3690
3690
ENDCHAR
STARTCHAR icircumflex
ENCODING 238
SWIDTH 176 0
DWIDTH 4 0
BBX 5 11 -1 0
BITMAP
038200
1A0830
000000
036900
036900
036900
036900
036900
036900
036900
036900
ENDCHAR
STARTCHAR idieresis
ENCODING 239
SWIDTH 176 0
DWIDTH 4 0
BBX 4 11 0 0
BITMAP
D187
1010
0000
3690
3690
3690
3690
3690
3690
3690
3690
ENDCHAR
STARTCHAR eth
ENCODING 240
SWIDTH 455 0
DWIDTH 9 0
BBX 9 8 0 0
BITMAP
18B9996000
18B9975800
1780029730
0000008470
8997008470
1790029730
18B9975800
18B9996000
ENDCHAR
STARTCHAR ntilde
ENCODING 241
SWIDTH 444 0
DWIDTH 9 0
BBX 9 11 0 0
BITMAP
0059406000
0070693000
0000000000
36C2009810
36AA009810
36B4809810
36B9849810
36965AA810
369094B810
36901A9810
369003B810
ENDCHAR
STARTCHAR ograve
ENCODING 242
SWIDTH 494 0
DWIDTH 10 0
BBX 10 11 0 0
BITMAP
0004600000
0000910000
0000000000
0049999300
0677996850
1984005790
5490000963
5490000963
1984005790
0677996850
0049999300
ENDCHAR
STARTCHAR oacute
ENCODING 243
SWIDTH 494 0
DWIDTH 10 0
BBX 10 11 0 0
BITMAP
0000073000
0000280000
0000000000
0049999300
0677996850
1984005790
5490000963
5490000963
1984005790
0677996850
0049999300
ENDCHAR
STARTCHAR ocircumflex
ENCODING 244
SWIDTH 494 0
DWIDTH 10 0
BBX 10 11 0 0
BITMAP
0002A20000
000A165000
0000000000
0049999300
0677996850
1984005790
5490000963
5490000963
1984005790
0677996850
0049999300
ENDCHAR
STARTCHAR otilde
ENCODING 245
SWIDTH 494 0
DWIDTH 10 0
BBX 10 11 0 0
BITMAP
0019815200
0033298000
0000000000
0049999300
0677996850
1984005790
5490000963
5490000963
1984005790
0677996850
0049999300
ENDCHAR
STARTCHAR odieresis
ENCODING 246
SWIDTH 494 0
DWIDTH 10 0
BBX 10 11 0 0
BITMAP
000B469000
0001001000
0000000000
0049999300
0677996850
1984005790
5490000963
5490000963
1984005790
0677996850
0049999300
ENDCHAR
STARTCHAR divide
ENCODING 247
SWIDTH 418 0
DWIDTH 8 0
BBX 8 7 0 0
BITMAP
00058000
00058000
29999995
00000000
29999995
00058000
00079100
ENDCHAR
STARTCHAR oslash
ENCODING 248
SWIDTH 494 0
DWIDTH 10 0
BBX 10 8 0 0
BITMAP
0049996450
0677963920
1984039290
54902A0963
5491A10963
182A105790
02A2896850
0627999300
ENDCHAR
STARTCHAR ugrave
ENCODING 249
SWIDTH 400 0
DWIDTH 8 0
BBX 8 11 0 0
BITMAP
00470000
00092000
00000000
36900963
36900963
36900963
36900963
36900963
28900982
0A4994A0
01999910
ENDCHAR
STARTCHAR uacute
ENCODING 250
SWIDTH 400 0
DWIDTH 8 0
BBX 8 11 0 0
BITMAP
00007400
00019000
00000000
36900963
36900963
36900963
36900963
36900963
28900982
0A4994A0
01999910
ENDCHAR
STARTCHAR ucircumflex
ENCODING 251
SWIDTH 400 0
DWIDTH 8 0
BBX 8 11 0 0
BITMAP
001A2000
00A25600
00000000
36900963
36900963
36900963
36900963
36900963
28900982
0A4994A0
01999910
ENDCHAR
STARTCHAR udieresis
ENCODING 252
SWIDTH 400 0
DWIDTH 8 0
BBX 8 11 0 0
BITMAP
00A55A00
00100100
00000000
36900963
36900963
36900963
36900963
36900963
28900982
0A4994A0
01999910
ENDCHAR
STARTCHAR yacute
ENCODING 253
SWIDTH 422 0
DWIDTH 8 0
BBX 9 11 0 0
BITMAP
0000370000
0000A00000
0000000000
75A1075A10
0A48298300
0297B48000
0065AA0000
0005320000
0009630000
0009630000
0009630000
ENDCHAR
STARTCHAR thorn
ENCODING 254
SWIDTH 412 0
DWIDTH 8 0
BBX 8 8 0 0
BITMAP
36900000
36B99950
36900074
36B99928
36B99928
36900074
36B99950
36900000
ENDCHAR
STARTCHAR ydieresis
ENCODING 255
SWIDTH 422 0
DWIDTH 8 0
BBX 9 11 0 0
BITMAP
00782D0000
0011010000
0000000000
75A1075A10
0A48298300
0297B48000
0065AA0000
0005320000
0009630000
0009630000
0009630000
ENDCHAR
STARTCHAR Edotaccent
ENCODING 278
SWIDTH 677 0
DWIDTH 14 0
BBX 12 19 1 0
BITMAP
000000A50000
000000D70000
000000000000
995499999998
995499999998
995400000000
995499999998
995400000000
995400000000
995499999970
995400000000
995499999970
995499999970
995400000000
995400000000
995400000000
995499999998
995499999998
995499999998
ENDCHAR
STARTCHAR edotaccent
ENCODING 279
SWIDTH 363 0
DWIDTH 7 0
BBX 7 11 0 0
BITMAP
0006A000
0008C000
00000000
36B99980
36B99980
36900000
36B99920
36B99920
36900000
36B99980
36B99980
ENDCHAR
STARTCHAR dotlessi
ENCODING 305
SWIDTH 176 0
DWIDTH 4 0
BBX 3 8 0 0
BITMAP
3690
3690
3690
3690
3690
3690
3690
3690
ENDCHAR
STARTCHAR OE
ENCODING 338
SWIDTH 1221 0
DWIDTH 24 0
BBX 24 16 0 0
BITMAP
000005999991000199999997
0003A5699991000199999997
004959400000000000000000
029660499991000199999997
09481A500000000000000000
0992A1000000000000000000
469550000000000199999960
549900000000000000000000
549900000000000199999960
46A900000000000199999960
199650000000000000000000
0949A1000000000000000000
02968A500000000000000000
00495A899991000199999997
0003A5699991000199999997
000005999991000199999997
ENDCHAR
STARTCHAR oe
ENCODING 339
SWIDTH 637 0
DWIDTH 13 0
BBX 13 8 0 0
BITMAP
00599920799930
07679920799930
28930000000000
54900000799700
54900000799700
28830000000000
07679920799930
00599920799930
ENDCHAR
STARTCHAR Wcircumflex
ENCODING 372
SWIDTH 972 0
DWIDTH 19 0
BBX 19 21 0 0
BITMAP
00000003975100000000
0000001A482A00000000
00000094A0A480000000
0000066A202974000000
00000000000000000000
74790000945900064890
36972000984700095590
09945002796300098460
09549006489200369720
07489009559710748900
03697209847450955900
00994627974490984600
009549648928A3697200
00748955591984489000
00369728467955559000
0009946973A559846000
00095593907489372000
00074890903697290000
00036973600984670000
00009946100955910000
00009559000648900000
ENDCHAR
STARTCHAR wcircumflex
ENCODING 373
SWIDTH 521 0
DWIDTH 10 0
BBX 11 11 0 0
BITMAP
0000A3000000
000843900000
000000000000
955095509810
648099637900
27946A974800
0989499A5400
094D6B7A9100
054A99479000
0189945B7000
0097619A3000
ENDCHAR
STARTCHAR Ycircumflex
ENCODING 374
SWIDTH 769 0
DWIDTH 15 0
BBX 15 21 0 0
BITMAP
0000039741000000
00001A472A000000
000094A0A4700000
00065A1029740000
0000000000000000
74A56000002974A0
0A47920000949830
03884A00066A4800
0074A5602A65A100
000A479294974000
0003884A1A480000
000084A663A10000
00000A46A3400000
0000032523000000
0000007734000000
0000009945000000
0000009945000000
0000009945000000
0000009945000000
0000009945000000
0000009945000000
ENDCHAR
STARTCHAR ycircumflex
ENCODING 375
SWIDTH 422 0
DWIDTH 8 0
BBX 9 11 0 0
BITMAP
000A300000
0084390000
0000000000
75A1075A10
0A48298300
0297B48000
0065AA0000
0005320000
0009630000
0009630000
0009630000
ENDCHAR
STARTCHAR Ydieresis
ENCODING 376
SWIDTH 769 0
DWIDTH 15 0
BBX 15 21 0 0
BITMAP
0003993008970000
000A00A064064000
000A00A064064000
0003993008970000
0000000000000000
74A56000002974A0
0A47920000949830
03884A00066A4800
0074A5602A65A100
000A479294974000
0003884A1A480000
000084A663A10000
00000A46A3400000
0000032523000000
0000007734000000
0000009945000000
0000009945000000
0000009945000000
0000009945000000
0000009945000000
0000009945000000
ENDCHAR
STARTCHAR circumflex
ENCODING 710
SWIDTH 298 0
DWIDTH 6 0
BBX 4 2 1 9
BITMAP
0A30
9338
ENDCHAR
STARTCHAR dotaccent
ENCODING 729
SWIDTH 212 0
DWIDTH 4 0
BBX 2 2 1 9
BITMAP
69
8C
ENDCHAR
STARTCHAR ring
ENCODING 730
SWIDTH 212 0
DWIDTH 4 0
BBX 3 3 1 9
BITMAP
6800
8530
6800
ENDCHAR
STARTCHAR tilde
ENCODING 732
SWIDTH 329 0
DWIDTH 7 0
BBX 5 2 1 9
BITMAP
693150
707920
ENDCHAR
STARTCHAR gravecomb
ENCODING 768
SWIDTH 0 0
DWIDTH 0 0
BBX 2 2 1 9
BITMAP
91
29
ENDCHAR
STARTCHAR acutecomb
ENCODING 769
SWIDTH 0 0
DWIDTH 0 0
BBX 2 2 1 9
BITMAP
29
91
ENDCHAR
STARTCHAR uni0302
ENCODING 770
SWIDTH 0 0
DWIDTH 0 0
BBX 4 2 1 9
BITMAP
0A30
9338
ENDCHAR
STARTCHAR tildecomb
ENCODING 771
SWIDTH 0 0
DWIDTH 0 0
BBX 5 2 1 9
BITMAP
693150
707920
ENDCHAR
STARTCHAR uni0307
ENCODING 775
SWIDTH 0 0
DWIDTH 0 0
BBX 2 2 1 9
BITMAP
69
8C
ENDCHAR
STARTCHAR uni0308
ENCODING 776
SWIDTH 0 0
DWIDTH 0 0
BBX 4 2 1 9
BITMAP
C378
1001
ENDCHAR
STARTCHAR uni030A
ENCODING 778
SWIDTH 0 0
DWIDTH 0 0
BBX 3 3 1 9
BITMAP
6800
8530
6800
ENDCHAR
STARTCHAR uni0327
ENCODING 807
SWIDTH 0 0
DWIDTH 0 0
BBX 4 4 1 -4
BITMAP
0600
7B90
1073
7980
ENDCHAR
STARTCHAR Wgrave
ENCODING 7808
SWIDTH 972 0
DWIDTH 19 0
BBX 19 21 0 0
BITMAP
000000056A1000000000
00000000A48000000000
00000000288200000000
00000000074A00000000
00000000000000000000
74790000945900064890
36972000984700095590
09945002796300098460
09549006489200369720
07489009559710748900
03697209847450955900
00994627974490984600
009549648928A3697200
00748955591984489000
00369728467955559000
0009946973A559846000
00095593907489372000
00074890903697290000
00036973600984670000
00009946100955910000
00009559000648900000
ENDCHAR
STARTCHAR wgrave
ENCODING 7809
SWIDTH 521 0
DWIDTH 10 0
BBX 11 11 0 0
BITMAP
000064000000
00000A000000
000000000000
955095509810
648099637900
27946A974800
0989499A5400
094D6B7A9100
054A99479000
0189945B7000
0097619A3000
ENDCHAR
STARTCHAR Wacute
ENCODING 7810
SWIDTH 972 0
DWIDTH 19 0
BBX 19 21 0 0
BITMAP
00000000084900000000
00000000379100000000
00000000A47000000000
000000065A0000000000
00000000000000000000
74790000945900064890
36972000984700095590
09945002796300098460
09549006489200369720
07489009559710748900
03697209847450955900
00994627974490984600
009549648928A3697200
00748955591984489000
00369728467955559000
0009946973A559846000
00095593907489372000
00074890903697290000
00036973600984670000
00009946100955910000
00009559000648900000
ENDCHAR
STARTCHAR wacute
ENCODING 7811
SWIDTH 521 0
DWIDTH 10 0
BBX 11 11 0 0
BITMAP
00000A000000
000064000000
000000000000
955095509810
648099637900
27946A974800
0989499A5400
094D6B7A9100
054A99479000
0189945B7000
0097619A3000
ENDCHAR
STARTCHAR Wdieresis
ENCODING 7812
SWIDTH 972 0
DWIDTH 19 0
BBX 19 21 0 0
BITMAP
00000399300897000000
00000900A06406400000
00000A00A06406400000
00000399300897000000
00000000000000000000
74790000945900064890
36972000984700095590
09945002796300098460
09549006489200369720
07489009559710748900
03697209847450955900
00994627974490984600
009549648928A3697200
00748955591984489000
00369728467955559000
0009946973A559846000
00095593907489372000
00074890903697290000
00036973600984670000
00009946100955910000
00009559000648900000
ENDCHAR
STARTCHAR wdieresis
ENCODING 7813
SWIDTH 521 0
DWIDTH 10 0
BBX 11 11 0 0
BITMAP
000782D00000
000110100000
000000000000
955095509810
648099637900
27946A974800
0989499A5400
094D6B7A9100
054A99479000
0189945B7000
0097619A3000
ENDCHAR
STARTCHAR uni1E9E
ENCODING 7838
SWIDTH 784 0
DWIDTH 16 0
BBX 14 16 1 0
BITMAP
99549999999920
99549999999920
99540000000000
99549999999920
99540001975A00
99540008498300
99540028949100
995400A4792860
9954056A565873
99540523529649
99540000006489
99540000005499
99540000008569
99540899997A56
99540899998490
99540899999600
ENDCHAR
STARTCHAR Ygrave
ENCODING 7922
SWIDTH 769 0
DWIDTH 15 0
BBX 15 21 0 0
BITMAP
0000056A00000000
000000A470000000
0000002882000000
0000000849000000
0000000000000000
74A56000002974A0
0A47920000949830
03884A00066A4800
0074A5602A65A100
000A479294974000
0003884A1A480000
000084A663A10000
00000A46A3400000
0000032523000000
0000007734000000
0000009945000000
0000009945000000
0000009945000000
0000009945000000
0000009945000000
0000009945000000
ENDCHAR
STARTCHAR ygrave
ENCODING 7923
SWIDTH 422 0
DWIDTH 8 0
BBX 9 11 0 0
BITMAP
0006400000
0000A00000
0000000000
75A1075A10
0A48298300
0297B48000
0065AA0000
0005320000
0009630000
0009630000
0009630000
ENDCHAR
STARTCHAR endash
ENCODING 8211
SWIDTH 507 0
DWIDTH 10 0
BBX 9 2 1 3
BITMAP
9999999910
9999999910
ENDCHAR
STARTCHAR emdash
ENCODING 8212
SWIDTH 552 0
DWIDTH 11 0
BBX 9 2 1 3
BITMAP
9999999990
9999999990
ENDCHAR
STARTCHAR quoteleft
ENCODING 8216
SWIDTH 146 0
DWIDTH 3 0
BBX 3 3 0 5
BITMAP
8100
8450
4230
ENDCHAR
STARTCHAR quoteright
ENCODING 8217
SWIDTH 146 0
DWIDTH 3 0
BBX 3 3 0 5
BITMAP
8460
3360
0230
ENDCHAR
STARTCHAR quotesinglbase
ENCODING 8218
SWIDTH 146 0
DWIDTH 3 0
BBX 3 3 0 -3
BITMAP
1010
8460
2360
ENDCHAR
STARTCHAR quotedblleft
ENCODING 8220
SWIDTH 297 0
DWIDTH 6 0
BBX 6 3 0 5
BITMAP
810720
845745
423424
ENDCHAR
STARTCHAR quotedblright
ENCODING 8221
SWIDTH 297 0
DWIDTH 6 0
BBX 6 3 0 5
BITMAP
846747
336337
023014
ENDCHAR
STARTCHAR quotedblbase
ENCODING 8222
SWIDTH 297 0
DWIDTH 6 0
BBX 6 3 0 -3
BITMAP
101101
846747
236237
ENDCHAR
STARTCHAR bullet
ENCODING 8226
SWIDTH 302 0
DWIDTH 6 0
BBX 4 4 1 2
BITMAP
3993
A00A
A00A
3993
ENDCHAR
STARTCHAR ellipsis
ENCODING 8230
SWIDTH 528 0
DWIDTH 11 0
BBX 10 2 0 0
BITMAP
2450632146
3690954279
ENDCHAR
STARTCHAR guilsinglleft
ENCODING 8249
SWIDTH 178 0
DWIDTH 4 0
BBX 3 5 0 2
BITMAP
0010
0760
0360
2820
0370
ENDCHAR
STARTCHAR guilsinglright
ENCODING 8250
SWIDTH 178 0
DWIDTH 4 0
BBX 3 5 0 2
BITMAP
1100
1A30
2430
0480
1800
ENDCHAR
STARTCHAR fraction
ENCODING 8260
SWIDTH 362 0
DWIDTH 7 0
BBX 7 8 0 0
BITMAP
00008490
00028820
00094800
00379100
00A46000
056A0000
0A650000
64A00000
ENDCHAR
STARTCHAR uni2074
ENCODING 8308
SWIDTH 204 0
DWIDTH 4 0
BBX 4 4 0 4
BITMAP
0670
1940
3766
2666
ENDCHAR
STARTCHAR Euro
ENCODING 8364
SWIDTH 462 0
DWIDTH 9 0
BBX 9 8 0 0
BITMAP
0029999600
0295998440
0527003300
8999500000
8999500000
0516003400
0295998450
0029999600
ENDCHAR
STARTCHAR trademark
ENCODING 8482
SWIDTH 461 0
DWIDTH 9 0
BBX 9 4 0 4
BITMAP
ADD6951660
062097B560
0720902360
0720900360
ENDCHAR
STARTCHAR minus
ENCODING 8722
SWIDTH 420 0
DWIDTH 8 0
BBX 8 2 0 3
BITMAP
3DDDDDD8
3DDDDDD8
ENDCHAR
STARTCHAR uni2215
ENCODING 8725
SWIDTH 278 0
DWIDTH 6 0
BBX 6 8 0 0
BITMAP
000A73
0037A0
008480
00A730
036A00
084700
0A7200
46A000
ENDCHAR
STARTCHAR .notdef
ENCODING -1
SWIDTH 500 0
DWIDTH 10 0
BBX 8 23 1 -5
BITMAP
FFFFFFFF
F000000F
F000000F
F000000F
F000000F
F000000F
F000000F
F000000F
F000000F
F000000F
F000000F
F000000F
F000000F
F000000F
F000000F
F000000F
F000000F
F000000F
F000000F
F000000F
F000000F
F000000F
FFFFFFFF
ENDCHAR
STARTCHAR NULL
ENCODING -1
SWIDTH 600 0
DWIDTH 12 0
BBX 1 1 0 0
BITMAP
00
ENDCHAR
STARTCHAR acutecomb.case
ENCODING -1
SWIDTH 0 0
DWIDTH 0 0
BBX 5 4 1 17
BITMAP
00A550
074A00
298200
948000
ENDCHAR
STARTCHAR ampersand.case
ENCODING -1
SWIDTH 797 0
DWIDTH 16 0
BBX 15 16 0 0
BITMAP
0000289996000000
0003959985900000
000A58896A550000
0018973095590000
00279730A5590000
000983A55A560000
0009496676A00000
0024A65946000000
04945793B1004000
0A5A284A39065600
45A580A496658580
6489002A66936930
36A83004794A4400
0A59899374A49000
029489872A496500
0018999971A56920
ENDCHAR
STARTCHAR asciicircum.case
ENCODING -1
SWIDTH 540 0
DWIDTH 11 0
BBX 11 9 0 8
BITMAP
000001000000
000028000000
000094500000
00056A420000
000A65390000
0074A1A65000
02882056A100
0948000A4700
46A100028820
ENDCHAR
STARTCHAR asciitilde.case
ENCODING -1
SWIDTH 640 0
DWIDTH 13 0
BBX 11 5 1 6
BITMAP
599984000140
A10015999830
589996201590
899999788760
400004899830
ENDCHAR
STARTCHAR asterisk.case
ENCODING -1
SWIDTH 482 0
DWIDTH 10 0
BBX 8 7 1 9
BITMAP
00279000
22279031
38500861
89100494
02400600
0A458560
02A03720
ENDCHAR
STARTCHAR at.case
ENCODING -1
SWIDTH 915 0
DWIDTH 18 0
BBX 17 16 1 0
BITMAP
000038999997100000
001975899975860000
01A4A6100027967000
094A1179A9671A6500
46A11A300689028900
956091599789009640
A81186600489006680
990379000189005590
990189000189007480
A8109760048911A370
95601A799792992820
47A101798754004800
094A10000004896000
01A496100025000000
001975899865400000
000038999996100000
ENDCHAR
STARTCHAR backslash.case
ENCODING -1
SWIDTH 504 0
DWIDTH 10 0
BBX 10 18 0 -1
BITMAP
946A000000
45A7200000
0984800000
0847A00000
046A730000
00A7480000
00847A0000
0037A64000
000A748000
0008489000
00027A6400
0000A64900
0000748900
0000289550
00000A6590
0000064991
0000018955
0000009559
ENDCHAR
STARTCHAR bar.case
ENCODING -1
SWIDTH 262 0
DWIDTH 5 0
BBX 4 18 1 -1
BITMAP
9954
9954
9954
9954
9954
9954
9954
9954
9954
9954
9954
9954
9954
9954
9954
9954
9954
9954
ENDCHAR
STARTCHAR braceleft.case
ENCODING -1
SWIDTH 504 0
DWIDTH 10 0
BBX 9 18 1 -1
BITMAP
0073475910
0094595910
0094590000
0094595910
0094590000
0094590000
0094590000
0094590000
9694590000
9694590000
9694590000
0094590000
0094590000
0094590000
0094590000
0094595910
0094595910
0073475910
ENDCHAR
STARTCHAR braceright.case
ENCODING -1
SWIDTH 506 0
DWIDTH 10 0
BBX 9 18 1 -1
BITMAP
8763570000
8784690000
8784690000
0084690000
0084690000
0084690000
0084690000
0084695910
0084695910
0084695910
0084690000
0084690000
0084690000
0084690000
8784690000
0084690000
8784690000
8763570000
ENDCHAR
STARTCHAR bracketleft.case
ENCODING -1
SWIDTH 453 0
DWIDTH 9 0
BBX 8 18 1 -1
BITMAP
77439991
99549991
99540000
99549991
99540000
99540000
99540000
99540000
99540000
99540000
99540000
99540000
99540000
99540000
99540000
99549991
99549991
77439991
ENDCHAR
STARTCHAR bracketright.case
ENCODING -1
SWIDTH 453 0
DWIDTH 9 0
BBX 8 18 1 -1
BITMAP
99935761
99946981
99946981
00036981
00036981
00036981
00036981
00036981
00036981
00036981
00036981
00036981
00036981
00036981
99946981
00036981
99946981
99935761
ENDCHAR
STARTCHAR brokenbar.case
ENCODING -1
SWIDTH 262 0
DWIDTH 5 0
BBX 4 18 1 0
BITMAP
9954
9954
9954
9954
9954
9954
9954
9954
0000
0000
9954
9954
9954
9954
9954
9954
9954
9954
ENDCHAR
STARTCHAR bullet.case
ENCODING -1
SWIDTH 503 0
DWIDTH 10 0
BBX 8 8 1 4
BITMAP
01799810
1A6997A2
95700769
99000099
99000099
95700759
1A6997A2
01799710
ENDCHAR
STARTCHAR uni0327.case
ENCODING -1
SWIDTH 0 0
DWIDTH 0 0
BBX 5 5 1 -5
BITMAP
034000
1D9800
220460
300550
599700
ENDCHAR
STARTCHAR cent.case
ENCODING -1
SWIDTH 577 0
DWIDTH 12 0
BBX 10 18 1 -1
BITMAP
0000648000
0000648000
0000547000
0005999600
02A50004A1
0A14999726
6487999650
956A200400
9955000000
9955000000
956A200400
6487999650
0A14999726
02A40004A1
0005999600
0000547000
0000648000
0000648000
ENDCHAR
STARTCHAR uni0302.case
ENCODING -1
SWIDTH 0 0
DWIDTH 0 0
BBX 9 4 1 17
BITMAP
0056930000
0297548000
1A48296500
94A0056920
ENDCHAR
STARTCHAR colon.case
ENCODING -1
SWIDTH 262 0
DWIDTH 5 0
BBX 4 11 1 0
BITMAP
2211
9954
9954
9954
0000
0000
0000
2211
9954
9954
9954
ENDCHAR
STARTCHAR comma.case
ENCODING -1
SWIDTH 338 0
DWIDTH 7 0
BBX 5 6 1 -2
BITMAP
010110
096490
199550
559810
946900
974700
ENDCHAR
STARTCHAR copyright.case
ENCODING -1
SWIDTH 895 0
DWIDTH 18 0
BBX 18 16 0 0
BITMAP
000004999999400000
0002A66999966A2000
003A5A400004A5A200
01A670000000095A00
09490017998400A470
0A9102A799763037A0
46A009670033000A72
549018A00000000954
549018A00000000954
46A009670033000A72
099102A79976303790
08490017999400A470
01A680000000095A00
00395A400005A4A200
0002A66999956A2000
000005999999400000
ENDCHAR
STARTCHAR currency.case
ENCODING -1
SWIDTH 676 0
DWIDTH 14 0
BBX 13 12 0 1
BITMAP
00110000002000
014A1000067300
14A48000378540
07771899546920
0042A799683100
00084801982000
00096300954000
00084801982000
0062A798682400
1A582899528760
149570001A4820
0148000002A100
ENDCHAR
STARTCHAR degree.case
ENCODING -1
SWIDTH 413 0
DWIDTH 8 0
BBX 8 7 0 9
BITMAP
01899920
0A4995A2
46A10938
64900549
37A10957
096996A1
00699710
ENDCHAR
STARTCHAR uni0308.case
ENCODING -1
SWIDTH 0 0
DWIDTH 0 0
BBX 10 4 1 17
BITMAP
3993018960
A00A073073
A00A073073
3993018960
ENDCHAR
STARTCHAR divide.case
ENCODING -1
SWIDTH 618 0
DWIDTH 12 0
BBX 11 10 1 3
BITMAP
00005A500000
0000A0A00000
00005A500000
000000000000
999999999930
999999999930
999999999930
00005A500000
0000A0A00000
00005A500000
ENDCHAR
STARTCHAR uni2215.case
ENCODING -1
SWIDTH 483 0
DWIDTH 10 0
BBX 9 16 0 0
BITMAP
00000847A0
0000098480
000046A730
0000947A00
0000984800
00046A7300
000947A000
0009848000
0046A73000
00946A0000
0098470000
045A720000
0946A00000
0984700000
45A7200000
946A000000
ENDCHAR
STARTCHAR dollar.case
ENCODING -1
SWIDTH 660 0
DWIDTH 13 0
BBX 13 18 0 -1
BITMAP
00000648000000
00015648520000
00784648388000
08587648694900
19848648749820
45991648195110
36A58425000000
0A494798300000
02A47974794000
00069647967700
00000379759730
000006453A7480
115816480A6490
2793864874A550
08486648693900
00884648379100
00025648520000
00000648000000
ENDCHAR
STARTCHAR eight.case
ENCODING -1
SWIDTH 561 0
DWIDTH 11 0
BBX 11 16 0 0
BITMAP
001899992000
02A599959400
0A5989887A10
36A830299560
549900096480
559660097470
297559837630
085696278400
047934983A00
19727A739640
559820387470
549900096480
36A730199550
0A5989887A10
039499959400
002899992000
ENDCHAR
STARTCHAR ellipsis.case
ENCODING -1
SWIDTH 766 0
DWIDTH 15 0
BBX 14 4 1 0
BITMAP
22110221102211
99540995409945
99540995409945
99540995409945
ENDCHAR
STARTCHAR emdash.case
ENCODING -1
SWIDTH 790 0
DWIDTH 16 0
BBX 14 3 1 6
BITMAP
99999999999997
99999999999997
99999999999997
ENDCHAR
STARTCHAR endash.case
ENCODING -1
SWIDTH 721 0
DWIDTH 14 0
BBX 13 3 1 6
BITMAP
99999999999940
99999999999940
99999999999940
ENDCHAR
STARTCHAR equal.case
ENCODING -1
SWIDTH 618 0
DWIDTH 12 0
BBX 11 9 1 3
BITMAP
999999999930
999999999930
000000000000
999999999930
000000000000
999999999930
000000000000
999999999930
999999999930
ENDCHAR
STARTCHAR Euro.case
ENCODING -1
SWIDTH 767 0
DWIDTH 15 0
BBX 15 16 0 0
BITMAP
0000017999995000
0000595899975930
0005778799969520
002976A400077100
0084892000001000
0053250000000000
7999999999100000
0000000000000000
7999999999100000
7999999999100000
0053250000000000
0084892000001000
001976A400077100
0005768799969520
0000494789964920
0000017999995000
ENDCHAR
STARTCHAR exclam.case
ENCODING -1
SWIDTH 262 0
DWIDTH 5 0
BBX 4 16 1 0
BITMAP
9954
9954
9954
9954
9954
9954
9954
9954
9954
9954
9954
6642
2211
9954
9954
9954
ENDCHAR
STARTCHAR exclamdown.case
ENCODING -1
SWIDTH 262 0
DWIDTH 5 0
BBX 4 16 1 -4
BITMAP
9953
9953
9953
2211
6642
9953
9953
9953
9953
9953
9953
9953
9953
9953
9953
9953
ENDCHAR
STARTCHAR five.case
ENCODING -1
SWIDTH 558 0
DWIDTH 11 0
BBX 11 16 0 0
BITMAP
089999999910
089999999910
089999999910
000000000000
099440000000
099440000000
099449961000
09944003A200
099449981A00
077338849540
000000198370
436600096480
46A730199550
0A5889877A10
039499959400
002899992000
ENDCHAR
STARTCHAR four.case
ENCODING -1
SWIDTH 585 0
DWIDTH 12 0
BBX 12 16 0 0
BITMAP
00000A649000
000055A63000
0000A65A0000
00055A640000
000A55A00000
0046A6500000
00A55A000000
046A55000000
0A46A0995400
144130995400
388882995481
388882995481
000000995400
388882995481
000000995400
000000995400
ENDCHAR
STARTCHAR uni2074.case
ENCODING -1
SWIDTH 312 0
DWIDTH 6 0
BBX 6 7 0 9
BITMAP
009470
037910
094700
155324
499459
499459
000459
ENDCHAR
STARTCHAR fraction.case
ENCODING -1
SWIDTH 655 0
DWIDTH 13 0
BBX 11 16 1 0
BITMAP
0000000055A0
00000000A640
000000074900
000000198200
000000848000
000002891000
000009470000
000046A00000
0000A5500000
00065A000000
001A74000000
007490000000
019820000000
094800000000
389100000000
A47000000000
ENDCHAR
STARTCHAR gravecomb.case
ENCODING -1
SWIDTH 0 0
DWIDTH 0 0
BBX 5 4 1 17
BITMAP
948000
298200
074A00
00A550
ENDCHAR
STARTCHAR greater.case
ENCODING -1
SWIDTH 677 0
DWIDTH 14 0
BBX 13 14 0 1
BITMAP
27000000000000
14A40000000000
1A669200000000
265A4881000000
04A47949600000
000794975A4000
00001984A57920
0000163A66A330
0006A482581000
03A56949500000
274A5792000000
1975A300000000
14A60000000000
28100000000000
ENDCHAR
STARTCHAR guillemotleft.case
ENCODING -1
SWIDTH 666 0
DWIDTH 13 0
BBX 12 12 1 2
BITMAP
000010000001
0006700001A2
019540004A32
2A3A40067591
819480435664
4A2710187350
A49600494A20
58767034A493
784A202A5871
03A460007853
0018600003A2
000020000011
ENDCHAR
STARTCHAR guillemotright.case
ENCODING -1
SWIDTH 666 0
DWIDTH 13 0
BBX 12 12 1 2
BITMAP
100000100000
940000491000
57700033A300
6849002A4850
948170557343
264A30063871
08768003A493
A49640485A43
4A4A40187591
759100449600
8600003A2000
200000200000
ENDCHAR
STARTCHAR guilsinglleft.case
ENCODING -1
SWIDTH 338 0
DWIDTH 7 0
BBX 5 12 1 2
BITMAP
000010
000670
019540
2A3A40
819480
4A2710
A49600
587670
784A20
03A460
001860
000020
ENDCHAR
STARTCHAR guilsinglright.case
ENCODING -1
SWIDTH 338 0
DWIDTH 7 0
BBX 5 12 1 2
BITMAP
100000
940000
577000
684900
948170
264A30
087680
A49640
4A4A40
759100
860000
200000
ENDCHAR
STARTCHAR hyphen.case
ENCODING -1
SWIDTH 445 0
DWIDTH 9 0
BBX 7 3 1 6
BITMAP
99999980
99999980
99999980
ENDCHAR
STARTCHAR less.case
ENCODING -1
SWIDTH 677 0
DWIDTH 14 0
BBX 12 14 1 1
BITMAP
000000000037
000000002973
000000079495
000005A48847
0000966A4881
003926569200
459497340000
5A4884A50000
01794A66A300
0002975A4881
000004A57946
000000069496
000000001882
000000000027
ENDCHAR
STARTCHAR logicalnot.case
ENCODING -1
SWIDTH 618 0
DWIDTH 12 0
BBX 11 8 1 2
BITMAP
999999999930
000000000000
999999999930
999999999930
000000011110
000000098450
000000098450
000000098450
ENDCHAR
STARTCHAR uni00B5.case
ENCODING -1
SWIDTH 792 0
DWIDTH 16 0
BBX 15 20 1 -4
BITMAP
9954000036981000
9954000036981000
9954000036981000
9954000036981000
9954000036981000
9954000036981000
9954000036981000
9954000036981000
9954000036981000
9954000036981000
9954000036990000
9954000065890000
99543003A8485100
9954799886925830
9954899849366930
9954999981039940
9954000000000000
9954000000000000
9954000000000000
9953000000000000
ENDCHAR
STARTCHAR minus.case
ENCODING -1
SWIDTH 618 0
DWIDTH 12 0
BBX 11 3 1 6
BITMAP
999999999930
999999999930
999999999930
ENDCHAR
STARTCHAR multiply.case
ENCODING -1
SWIDTH 580 0
DWIDTH 12 0
BBX 10 10 1 3
BITMAP
0400005400
1B90058730
A6B6587682
2A45876840
0158768400
0587685000
5876848900
5768466B90
048402A630
0030002300
ENDCHAR
STARTCHAR nine.case
ENCODING -1
SWIDTH 558 0
DWIDTH 11 0
BBX 11 16 0 0
BITMAP
001899992000
02A599959400
0A6889886A10
37A830299550
548900096480
54A830095480
277589595480
092799595480
01A400095480
000699595480
000000095480
325500096480
45A830199550
0A6889887A10
039599958400
002999992000
ENDCHAR
STARTCHAR numbersign.case
ENCODING -1
SWIDTH 776 0
DWIDTH 16 0
BBX 14 16 1 0
BITMAP
00096480098460
00098460099630
00099530145410
29379839999995
00459900000000
28747949999995
26945959999995
00964800442200
00432300896300
99999994698360
99999985499360
99999977479560
01111009549000
09549009747000
09747009954000
09954027972000
ENDCHAR
STARTCHAR one.case
ENCODING -1
SWIDTH 378 0
DWIDTH 8 0
BBX 7 16 0 0
BITMAP
69595480
69595480
00095480
69595480
00095480
00095480
00095480
00095480
00095480
00095480
00095480
00095480
00095480
00095480
00095480
00095480
ENDCHAR
STARTCHAR onehalf.case
ENCODING -1
SWIDTH 735 0
DWIDTH 15 0
BBX 13 16 1 0
BITMAP
94972000084900
94972000289100
00972000947000
00972004791000
0097200A560000
00972055A00000
009720A6400000
00110749000000
00001983000000
00008480399910
00028910A59480
00094700337490
0046A100077840
00A56000354500
065A0001999950
1A640001999950
ENDCHAR
STARTCHAR onequarter.case
ENCODING -1
SWIDTH 722 0
DWIDTH 14 0
BBX 13 16 1 0
BITMAP
94972000084900
94972000289100
00972000947000
00972004791000
0097200A560000
00972055A00000
009720A6400000
00110749000000
00001983000000
000084800A6400
0002891065A000
00094700A64000
0046A102364230
00A56005977470
065A0005977470
1A640000007470
ENDCHAR
STARTCHAR uni00B9.case
ENCODING -1
SWIDTH 306 0
DWIDTH 6 0
BBX 5 8 1 8
BITMAP
949720
949720
009720
009720
009720
009720
009720
001100
ENDCHAR
STARTCHAR ordfeminine.case
ENCODING -1
SWIDTH 456 0
DWIDTH 9 0
BBX 7 7 1 9
BITMAP
0094B000
00987200
055D4700
09548800
1899B530
74B9A480
96100880
ENDCHAR
STARTCHAR ordmasculine.case
ENCODING -1
SWIDTH 489 0
DWIDTH 10 0
BBX 8 8 1 8
BITMAP
03999910
396785A1
96400757
98000269
95400729
91588446
1A200490
01799600
ENDCHAR
STARTCHAR paragraph.case
ENCODING -1
SWIDTH 893 0
DWIDTH 18 0
BBX 17 16 0 0
BITMAP
002999999999999970
049699999999999970
0A8500000000000000
559299999999999970
747900000325501450
639910000648901890
468899998648901890
0A1599998648901890
02A300000648901890
001799998648901890
000000000648901890
000000000648901890
000000000648901890
000000000648901890
000000000648901890
000000000648901890
ENDCHAR
STARTCHAR parenleft.case
ENCODING -1
SWIDTH 290 0
DWIDTH 6 0
BBX 7 18 0 -1
BITMAP
0047A910
00966800
027A7200
07579000
09757000
09954000
36981000
55990000
64890000
64890000
55990000
36981000
09954000
09757000
07479000
027A7200
00966800
0047A910
ENDCHAR
STARTCHAR parenright.case
ENCODING -1
SWIDTH 290 0
DWIDTH 6 0
BBX 7 18 -1 -1
BITMAP
47A91000
0A757000
05599000
01996400
00965800
00747900
00459900
00279810
00189730
00189730
00279810
00459900
00747900
00965800
01996400
05599000
0A758000
47A91000
ENDCHAR
STARTCHAR percent.case
ENCODING -1
SWIDTH 827 0
DWIDTH 17 0
BBX 16 16 0 0
BITMAP
018999200002884A
0A4995A2000A4892
46A109380065A570
6490054901975A00
37A1095709498300
096996A146A48000
00699711A56A1000
000000084A650000
00000A4892000000
000065A470499820
0001A74A05889893
000949830A830569
0047A48018900189
01A56A100983055A
084A650007589775
3894900000699950
ENDCHAR
STARTCHAR period.case
ENCODING -1
SWIDTH 262 0
DWIDTH 5 0
BBX 4 4 1 0
BITMAP
2211
9954
9954
9954
ENDCHAR
STARTCHAR periodcentered.case
ENCODING -1
SWIDTH 262 0
DWIDTH 5 0
BBX 4 4 1 6
BITMAP
2211
9954
9954
9954
ENDCHAR
STARTCHAR plus.case
ENCODING -1
SWIDTH 616 0
DWIDTH 12 0
BBX 11 11 1 2
BITMAP
000646800000
000747900000
000747900000
000747900000
997747949930
997747949930
997747949930
000747900000
000747900000
000747900000
000101100000
ENDCHAR
STARTCHAR plusminus.case
ENCODING -1
SWIDTH 618 0
DWIDTH 12 0
BBX 11 14 1 0
BITMAP
000646800000
000747900000
000747900000
000747900000
997747949930
997747949930
997747949930
000747900000
000747900000
000747900000
000101100000
999999999930
999999999930
999999999930
ENDCHAR
STARTCHAR question.case
ENCODING -1
SWIDTH 598 0
DWIDTH 12 0
BBX 10 16 1 0
BITMAP
0069999500
0958997580
74A7997A55
9758009569
5632005499
0000009289
0000193938
0000A3A492
00055A4A30
000946A100
0009549000
0006436000
0002112000
0009549000
0009549000
0009549000
ENDCHAR
STARTCHAR questiondown.case
ENCODING -1
SWIDTH 598 0
DWIDTH 12 0
BBX 10 16 1 -4
BITMAP
0009549000
0009549000
0009549000
0002112000
0006336000
0009449000
001A748000
03A4A65000
2949390000
9383910000
9929000000
9954003355
9758009579
65A7996A56
0958997590
0069999600
ENDCHAR
STARTCHAR quotedbl.case
ENCODING -1
SWIDTH 464 0
DWIDTH 9 0
BBX 9 6 0 10
BITMAP
8469074790
8469074790
8469074790
8469074790
8469074790
1001010110
ENDCHAR
STARTCHAR quotedblbase.case
ENCODING -1
SWIDTH 464 0
DWIDTH 9 0
BBX 9 6 0 -3
BITMAP
8469074790
8469074790
8469074790
1369012790
0369002790
0001000110
ENDCHAR
STARTCHAR quotedblleft.case
ENCODING -1
SWIDTH 464 0
DWIDTH 9 0
BBX 9 6 0 11
BITMAP
1000010100
8460074700
8462074720
8469074790
8469074790
8469074790
ENDCHAR
STARTCHAR quotedblright.case
ENCODING -1
SWIDTH 464 0
DWIDTH 9 0
BBX 9 6 0 10
BITMAP
8469074790
8469074790
8469074790
1369012790
0369002790
0001000110
ENDCHAR
STARTCHAR quoteleft.case
ENCODING -1
SWIDTH 212 0
DWIDTH 4 0
BBX 4 6 0 11
BITMAP
1000
8460
8462
8469
8469
8469
ENDCHAR
STARTCHAR quoteright.case
ENCODING -1
SWIDTH 212 0
DWIDTH 4 0
BBX 4 6 0 10
BITMAP
8469
8469
8469
1369
0369
0001
ENDCHAR
STARTCHAR quotesinglbase.case
ENCODING -1
SWIDTH 212 0
DWIDTH 4 0
BBX 4 6 0 -3
BITMAP
8469
8469
8469
1369
0369
0001
ENDCHAR
STARTCHAR quotesingle.case
ENCODING -1
SWIDTH 212 0
DWIDTH 4 0
BBX 4 6 0 10
BITMAP
8469
8469
8469
8469
8469
1001
ENDCHAR
STARTCHAR registered.case
ENCODING -1
SWIDTH 895 0
DWIDTH 18 0
BBX 18 16 0 0
BITMAP
000004999999400000
0002A66999966A2000
003A5A400004A5A200
01A670000000095A00
09490259999700A470
0A91036B99956037A0
46A003690055900A72
5490036B99A8500954
5490036B9DB6000954
46A003690848000A72
099103690289103790
08490257008440A470
01A680000000095A00
00395A400005A4A200
0002A66999956A2000
000005999999400000
ENDCHAR
STARTCHAR uni030A.case
ENCODING -1
SWIDTH 0 0
DWIDTH 0 0
BBX 5 4 1 17
BITMAP
39A500
A00910
A00910
39A500
ENDCHAR
STARTCHAR section.case
ENCODING -1
SWIDTH 645 0
DWIDTH 13 0
BBX 13 20 0 -3
BITMAP
00017999951000
004AA999999400
019A5899758910
05599100253000
045A3A84000000
01A3A635981000
0039337983A000
007268863A5600
06594713A55A00
09649000946900
0A659018594700
083A7A84329100
01A27899981000
002A821598A100
00002799386700
00030001A55900
34979999AA1900
0A158999716400
01A61000287000
00038999820000
ENDCHAR
STARTCHAR semicolon.case
ENCODING -1
SWIDTH 338 0
DWIDTH 7 0
BBX 5 13 1 -2
BITMAP
011120
084690
084690
084690
000000
000000
000000
010110
096490
199550
559810
946900
974700
ENDCHAR
STARTCHAR seven.case
ENCODING -1
SWIDTH 505 0
DWIDTH 10 0
BBX 10 16 0 0
BITMAP
4999999993
4999999993
0000000000
4999999993
0000022550
0000084690
0000097470
0000279630
0000748900
0000964900
0001895500
0005599100
0009459000
0009846000
0036972000
0084790000
ENDCHAR
STARTCHAR six.case
ENCODING -1
SWIDTH 558 0
DWIDTH 11 0
BBX 11 16 0 0
BITMAP
001899993000
029499958500
0A5989877910
36A730199460
648900053240
648900000000
648949961000
64890003A200
648949981A00
648949849540
648900198370
649900096480
36A730199550
0A5989877A10
039499959400
002899992000
ENDCHAR
STARTCHAR slash.case
ENCODING -1
SWIDTH 504 0
DWIDTH 10 0
BBX 10 18 0 -1
BITMAP
0000009559
0000018955
0000064991
00000A6590
0000289550
0000748900
0000A64900
00027A6400
0008489000
000A748000
0037A64000
00847A0000
00A7480000
046A730000
0847A00000
0984800000
45A7200000
946A000000
ENDCHAR
STARTCHAR uni00AD.case
ENCODING -1
SWIDTH 445 0
DWIDTH 9 0
BBX 7 3 1 6
BITMAP
99999980
99999980
99999980
ENDCHAR
STARTCHAR sterling.case
ENCODING -1
SWIDTH 618 0
DWIDTH 12 0
BBX 12 16 0 0
BITMAP
001799999300
02A589996770
0A4989987965
19965001A556
189540002100
053250000000
599999998000
000000000000
599999998000
599999998000
001111000000
075973000000
132130000000
799999999997
799999999997
799999999997
ENDCHAR
STARTCHAR three.case
ENCODING -1
SWIDTH 558 0
DWIDTH 11 0
BBX 11 16 0 0
BITMAP
002899993000
039599958500
0A6889877910
45A730199460
325500096480
000000078470
000004963720
00000003A300
000004981A00
000004849540
000000198370
324500096480
45A730199550
0A6889877A10
039599959400
002899992000
ENDCHAR
STARTCHAR threequarters.case
ENCODING -1
SWIDTH 722 0
DWIDTH 14 0
BBX 13 16 1 0
BITMAP
39980000084900
A5947000289100
11229000947000
00682004791000
0065800A560000
A6957055A00000
399800A6400000
00000749000000
00001983000000
000084800A6400
0002891065A000
00094700A64000
0046A102364230
00A56005977470
065A0005977470
1A640000007470
ENDCHAR
STARTCHAR uni00B3.case
ENCODING -1
SWIDTH 332 0
DWIDTH 7 0
BBX 5 7 1 9
BITMAP
399800
A59470
112290
006820
006580
A69570
399800
ENDCHAR
STARTCHAR tildecomb.case
ENCODING -1
SWIDTH 0 0
DWIDTH 0 0
BBX 8 3 1 17
BITMAP
29930006
A1094055
60007970
ENDCHAR
STARTCHAR trademark.case
ENCODING -1
SWIDTH 850 0
DWIDTH 17 0
BBX 17 8 0 8
BITMAP
799999736D2003D630
79AAA9736AA11AA630
007470036C49A4C630
007470036AA59AA630
007470036939739630
007470036905309630
007470036900009630
007470036900009630
ENDCHAR
STARTCHAR two.case
ENCODING -1
SWIDTH 558 0
DWIDTH 11 0
BBX 11 16 0 0
BITMAP
002899992000
039599959300
0A5889886A00
46A730299550
436600096480
0000001A7480
00000093A550
000007685B00
000058678400
000395877000
002A49580000
01A3A5900000
042516000000
089999999910
089999999910
089999999910
ENDCHAR
STARTCHAR uni00B2.case
ENCODING -1
SWIDTH 339 0
DWIDTH 7 0
BBX 5 7 1 9
BITMAP
399910
949490
326590
068750
363600
999960
999960
ENDCHAR
STARTCHAR underscore.case
ENCODING -1
SWIDTH 667 0
DWIDTH 13 0
BBX 12 3 1 0
BITMAP
999999999993
999999999993
999999999993
ENDCHAR
STARTCHAR yen.case
ENCODING -1
SWIDTH 769 0
DWIDTH 15 0
BBX 15 16 0 0
BITMAP
74A56000001975A0
0A47920000949740
03894900056A4800
0084A6501A56A100
001A56A194A65000
0004794939490000
0000939745920000
00001A65A2600000
0000053735000000
0000005522000000
0008939945893000
0008939945893000
0008939945893000
0000009945000000
0000009945000000
0000009945000000
ENDCHAR
STARTCHAR zero.case
ENCODING -1
SWIDTH 558 0
DWIDTH 11 0
BBX 11 16 0 0
BITMAP
001899992000
029499958400
0A5989887A10
36A730299560
648900096480
648900095480
648900095480
648900095480
648900095480
648900095480
648900095480
649900096480
36A730299560
0A5989887A10
039499958400
002899993000
ENDCHAR
ENDFONT
